<?xml version="1.0" encoding="utf-8"?>
<svg xmlns="http://www.w3.org/2000/svg" width="100" height="100" viewBox="0 0 100 100">
    <defs>
        <mask id="a_hole">
	        <circle class="st0" cx="83.87" cy="109.84" r="11.39"/>
        </mask>
    </defs>
    <path id="a_1" d="M160.45,0.56H1.45c-0.83,0-1.5,0.71-1.5,1.58v222.37c0,0.86,0.66,1.57,1.47,1.58
			c12.88,0.15,24.32-3.54,29.89-18.81c5.34-14.64,3.02-31.34,2.48-46.57c-0.62-17.47-1.46-47.06,2.34-64.22
			c4.4-19.85,15.73-41.75,35.68-48.84c37.13-13.22,59.33,16.65,60.45,51.6c0.47,14.44-1.73,40.64-2.59,54.97
			c-0.96,16.12-4.4,38.3,2.09,53.03c5.63,12.77,17.85,17.87,28.57,18.6c0.87,0.06,1.62-0.66,1.62-1.58V55.58V2.14
			C161.95,1.27,161.28,0.56,160.45,0.56z"/>
    <path id="a_2" d="M160.45,287.69c0.83,0,1.5-0.71,1.5-1.58v-54.4v-4.25c0-0.83-0.61-1.53-1.39-1.58
			c-10.77-0.68-23.12-5.76-28.79-18.62c-6.49-14.74-3.05-36.92-2.09-53.03c0.86-14.33,3.05-40.53,2.59-54.97
			c-1.12-34.95-23.32-64.81-60.45-51.6c-19.95,7.09-31.28,28.99-35.68,48.84c-3.8,17.17-2.96,46.76-2.34,64.22
			c0.54,15.23,2.86,31.92-2.48,46.57c-5.55,15.25-16.98,18.94-29.83,18.81c-0.84-0.01-1.53,0.69-1.53,1.58l0,57.43v1.01
			c0,0.87,0.67,1.58,1.5,1.58h63.13c2.75,0,4.97-2.23,4.97-4.97v-93.49c0-6.62,5.1-11.99,11.39-11.99c6.29,0,11.39,5.37,11.39,11.99
			v93.49c0,2.75,2.23,4.97,4.97,4.97H160.45z"/>
</svg>
