<?xml version="1.0" encoding="utf-8"?>
<!-- Generator: Adobe Illustrator 27.0.0, SVG Export Plug-In . SVG Version: 6.00 Build 0)  -->
<svg version="1.1" id="Layer_1" xmlns="http://www.w3.org/2000/svg" xmlns:xlink="http://www.w3.org/1999/xlink" x="0px" y="0px"
	 viewBox="0 0 162.25 288.25" style="enable-background:new 0 0 162.25 288.25;" xml:space="preserve">
<style type="text/css">
	.st0{fill:none;stroke:#000000;stroke-width:0.25;stroke-miterlimit:10;}
</style>
<g>
	<path class="st0" d="M63.49,221.51c-12.01-2.66-24.29-8.08-32.22-18.28c-6.96-8.94-10.96-21.49-7.42-32.82
		c3.82-12.25,15.28-20.8,26.49-24.51c10.98-3.63,23.27-4.29,33.35-10.54c13.79-8.56,7.43-21.4-7.25-25.59
		c-17.81-5.08-26.06-13.97-29.42-30.14c-2.69-12.93,1.89-27.12,14.63-35.31c10.82-6.95,21.1-7.8,34.21-8.08
		c16.42-0.35,43.21-0.34,60.85-0.17c2.99,0.03,5.42-2.39,5.42-5.38l0-25.18c0-2.97-2.41-5.38-5.38-5.38H5.5
		c-2.97,0-5.38,2.41-5.38,5.38v277.24c0,2.97,2.41,5.38,5.38,5.38h151.24c2.97,0,5.38-2.41,5.38-5.38l0-52.41
		c0-2.95-2.37-5.35-5.32-5.38C125.6,224.66,87.13,226.74,63.49,221.51z"/>
	<path class="st0" d="M133.55,99.15c-4.08-0.21-8.52-1.87-10.66-6.3c-0.98-2.03-1.37-4.48-1.23-6.85
		c0.72-12.34,11.87-13.76,19.41-13.86c5.09-0.07,10.17,0.66,15.24,1.07c3.14,0.25,5.82-2.22,5.82-5.36v-26.4
		c0-2.95-2.37-5.35-5.32-5.38c-17.64-0.17-44.5-0.18-60.95,0.17c-13.11,0.28-23.39,1.13-34.21,8.08
		C48.91,52.5,44.33,66.69,47.02,79.62c3.36,16.17,11.61,25.06,29.42,30.14c14.68,4.19,21.04,17.03,7.25,25.59
		c-10.08,6.26-22.37,6.91-33.35,10.54c-11.21,3.71-22.67,12.26-26.49,24.51c-3.53,11.33,0.46,23.88,7.42,32.82
		c7.94,10.2,20.22,15.62,32.22,18.28c23.61,5.22,62.03,3.15,93.21,3.44c2.99,0.03,5.42-2.38,5.42-5.38v-33.92
		c0-2.99-2.44-5.41-5.43-5.38c-8.78,0.08-17.58,0.27-26.33-0.14c-4.53-0.21-9.47-1.87-11.84-6.3c-1.09-2.03-1.52-4.48-1.37-6.85
		c0.8-12.34,13.19-13.76,21.56-13.86c5.91-0.07,11.81,0.73,17.71,1.12c3.09,0.21,5.7-2.27,5.7-5.37v-44.21
		c0-2.99-2.44-5.41-5.43-5.38C148.97,99.37,141.24,99.55,133.55,99.15z"/>
</g>
</svg>
