<?xml version="1.0" encoding="utf-8"?>
<!-- Generator: Adobe Illustrator 27.0.0, SVG Export Plug-In . SVG Version: 6.00 Build 0)  -->
<svg version="1.1" id="Layer_1" xmlns="http://www.w3.org/2000/svg" xmlns:xlink="http://www.w3.org/1999/xlink" x="0px" y="0px"
	 viewBox="0 0 162.25 288.25" style="enable-background:new 0 0 162.25 288.25;" xml:space="preserve">
<style type="text/css">
	.st0{fill:none;stroke:#000000;stroke-width:0.25;stroke-miterlimit:10;}
</style>
<path class="st0" d="M72.12,92.38c0,6.21-5.04,11.25-11.25,11.25s-11.25-5.04-11.25-11.25s5.04-11.25,11.25-11.25
	S72.12,86.16,72.12,92.38z M79.99,235c-5.7-25.65-16.94-50.93-17.24-77.51c-0.05-4.86-0.02-9.45,4.65-12.13
	c7.95-4.55,18.67-0.15,27.22-1.23c14.09-1.78,24.61-7.79,33.03-20.48c6.1-9.17,8.78-20.65,8.78-32.03
	c0-62.07-67.92-56.06-129.19-55.52c-3.95,0.03-7.13,3.25-7.13,7.2v237.64c0,3.98,3.22,7.2,7.2,7.2h67.81c3.5,0,6.52-2.52,7.1-5.98
	C85.35,263.46,83.88,252.5,79.99,235z"/>
<path class="st0" d="M0.13,7.33v21.56c0,4,3.26,7.24,7.26,7.2c61.23-0.55,129.05-6.5,129.05,55.52c0,11.39-2.69,22.86-8.78,32.03
	c-8.43,12.68-18.95,18.7-33.03,20.48c-8.55,1.08-19.28-3.32-27.22,1.23c-4.67,2.68-4.7,7.27-4.65,12.13
	c0.3,26.58,11.54,51.87,17.24,77.51c3.73,16.78,5.23,27.55,2.6,44.87c-0.66,4.35,2.73,8.25,7.12,8.25h65.21c3.98,0,7.2-3.22,7.2-7.2
	V7.33c0-3.98-3.22-7.2-7.2-7.2H7.33C3.35,0.13,0.13,3.35,0.13,7.33z"/>
</svg>
