<?xml version="1.0" encoding="utf-8"?>
<!-- Generator: Adobe Illustrator 27.0.0, SVG Export Plug-In . SVG Version: 6.00 Build 0)  -->
<svg version="1.1" id="Layer_1" xmlns="http://www.w3.org/2000/svg" xmlns:xlink="http://www.w3.org/1999/xlink" x="0px" y="0px"
	 viewBox="0 0 162.25 288.25" style="enable-background:new 0 0 162.25 288.25;" xml:space="preserve">
<style type="text/css">
	.st0{fill:none;stroke:#000000;stroke-width:0.25;stroke-miterlimit:10;}
</style>
<path class="st0" d="M131.62,61.07v114.03c0,27.62-23.62,50.02-52.75,50.02l0,0c-29.13,0-52.75-22.39-52.75-50.02V61.07
	c0-10.31-6.75-19.15-16.27-22.83c-4.69-1.81-9.74,1.71-9.74,6.74c0,40.14,0,208.91,0,238.66c0,2.48,2.01,4.49,4.49,4.49h150.31
	c3.98,0,7.2-3.22,7.2-7.2V40.91c0-2.48-2.01-4.49-4.49-4.49l0,0C143.27,36.41,131.62,47.45,131.62,61.07z"/>
<path class="st0" d="M89.1,7.33l0,79.71c0,6.33-4.95,11.77-11.27,11.87c-6.41,0.1-11.64-5.07-11.64-11.46V7.33
	c0-3.98-3.22-7.2-7.2-7.2H7.32c-3.98,0-7.2,3.22-7.2,7.2l0,22.68c0,3.37,2.34,6.32,5.64,7.02c11.62,2.48,20.37,12.31,20.37,24.05
	v114.03c0,27.62,23.62,50.02,52.75,50.02l0,0c29.13,0,52.75-22.39,52.75-50.02V61.07c0-13.62,11.64-24.66,26-24.66l0,0
	c2.48,0,4.49-2.01,4.49-4.49V7.33c0-3.98-3.22-7.2-7.2-7.2H96.3C92.32,0.13,89.1,3.35,89.1,7.33z"/>
</svg>
