<?xml version="1.0" encoding="utf-8"?>
<!-- Generator: Adobe Illustrator 27.0.0, SVG Export Plug-In . SVG Version: 6.00 Build 0)  -->
<svg version="1.1" id="Layer_1" xmlns="http://www.w3.org/2000/svg" xmlns:xlink="http://www.w3.org/1999/xlink" x="0px" y="0px"
	 viewBox="0 0 162.25 288.25" style="enable-background:new 0 0 162.25 288.25;" xml:space="preserve">
<style type="text/css">
	.st0{fill:none;stroke:#000000;stroke-width:0.25;stroke-miterlimit:10;}
</style>
<path class="st0" d="M87.23,192.12c0-24-11.99-24-11.99-48c0-24,11.99-24,11.99-48c0-24-11.99-24-11.99-48
	c0-20.2,8.49-23.4,11.18-38.2c0.92-5.06-2.55-9.79-7.15-9.79H7.41c-4.02,0-7.29,3.66-7.29,8.18v156.99c0,22,15.89,39.84,35.5,39.84
	l0,0v74.82c0,4.52,3.26,8.18,7.29,8.18h36.37c4.6,0,8.07-4.73,7.15-9.79c-2.69-14.81-11.18-18.01-11.18-38.21
	C75.24,216.12,87.23,216.12,87.23,192.12z"/>
<path class="st0" d="M94.05,0.12c-3.63,0-6.73,2.99-7.21,7.03c-2.07,17.25-11.6,19.58-11.6,40.97c0,24,11.99,24,11.99,48
	c0,24-11.99,24-11.99,48c0,24,11.99,24,11.99,48c0,24-11.99,24-11.99,48c0,21.4,9.53,23.72,11.6,40.98
	c0.48,4.03,3.58,7.03,7.21,7.03h25.29c4.02,0,7.29-3.66,7.29-8.18v-67.34c0-3.95,2.5-7.38,5.97-8.04
	c16.76-3.19,29.53-19.56,29.53-39.28V8.3c0-4.52-3.26-8.18-7.29-8.18H94.05z"/>
</svg>
