<?xml version="1.0" encoding="utf-8"?>
<!-- Generator: Adobe Illustrator 27.0.0, SVG Export Plug-In . SVG Version: 6.00 Build 0)  -->
<svg version="1.1" id="Layer_1" xmlns="http://www.w3.org/2000/svg" xmlns:xlink="http://www.w3.org/1999/xlink" x="0px" y="0px"
	 viewBox="0 0 162.25 288.25" style="enable-background:new 0 0 162.25 288.25;" xml:space="preserve">
<g>
<path class="st0" d="M0.12,6.25l0,23.67c0,3.41,2.78,6.16,6.18,6.13c17.64-0.16,43.82-0.16,59.97,0.18
	c13.11,0.28,23.39,1.13,34.21,8.08c11.75,7.55,16.63,22.47,14.44,35.88c-1.14,6.99-4.76,13.55-10.05,18.25
	c-4.51,4.01-10.03,6.57-15.66,8.62c-6.77,2.47-20.3,6.09-20.24,15.04c0.01,0.97,0.31,1.92,0.79,2.76
	c3.56,6.22,10.63,8.66,17.03,10.36c13.54,3.6,27.3,6.74,37.15,17.55c7.9,8.67,10.36,20.23,8.96,31.66
	c-1.29,10.61-6.11,20.98-14.48,27.83c-13.25,10.83-31.82,11.7-48.2,12.42c-18.9,0.84-37.82,0.26-56.73,0.23l-7.25-0.01
	c-3.39,0-6.13,2.74-6.13,6.13V282c0,3.38,2.74,6.13,6.13,6.13H156c3.38,0,6.13-2.74,6.13-6.13V6.25c0-3.38-2.74-6.13-6.13-6.13H6.25
	C2.87,0.13,0.12,2.87,0.12,6.25z"/>
<circle class="st0" cx="51.5" cy="78.6" r="11.52"/>
<circle class="st0" cx="69.5" cy="181.9" r="11.52"/>
<path class="st0" d="M70.24,224.69c16.38-0.73,34.95-1.6,48.2-12.42c8.37-6.84,13.19-17.22,14.48-27.83
	c1.39-11.44-1.07-22.99-8.96-31.66c-9.85-10.81-23.61-13.95-37.15-17.55c-6.47-1.72-13.62-4.19-17.14-10.55
	c-0.4-0.72-0.66-1.53-0.68-2.36c-0.28-9.1,13.41-12.76,20.24-15.25c5.63-2.05,11.14-4.61,15.66-8.62
	c5.29-4.7,8.91-11.26,10.05-18.25c2.19-13.4-2.69-28.33-14.44-35.88c-10.82-6.95-21.1-7.8-34.21-8.08
	c-16.46-0.35-43.34-0.34-60.98-0.17c-2.87,0.03-5.17,2.36-5.17,5.22l0,178.38c0,2.9,2.35,5.25,5.25,5.26l8.13,0.01
	C32.41,224.95,51.34,225.53,70.24,224.69z"/>
	</g>
</svg>
