<?xml version="1.0" encoding="utf-8"?>
<!-- Generator: Adobe Illustrator 27.0.0, SVG Export Plug-In . SVG Version: 6.00 Build 0)  -->
<svg version="1.1" id="Layer_1" xmlns="http://www.w3.org/2000/svg" xmlns:xlink="http://www.w3.org/1999/xlink" x="0px" y="0px"
	 viewBox="0 0 162.25 288.25" style="enable-background:new 0 0 162.25 288.25;" xml:space="preserve">
<style type="text/css">
	.st0{fill:none;stroke:#000000;stroke-width:0.25;stroke-miterlimit:10;}
</style>
<g>
	<path class="st0" d="M134.33,177.04c-2.24,0.02-4.53,0.05-6.65-1.24c-2.12-1.27-4.06-4.13-4.54-7.96c-0.44-3.5,0.44-7.19,1.79-9.88
		c4.51-8.9,11.46-15.04,17.29-20.93c5.74-5.79,12.59-11.5,18.07-17.64c1.18-1.32,1.83-3.03,1.83-4.81V7.33c0-3.98-3.22-7.2-7.2-7.2
		H7.33c-3.98,0-7.2,3.22-7.2,7.2v21.59c0,3.98,3.24,7.21,7.23,7.2c32.18-0.07,60.49-0.59,91.01,0.09
		c6.83,0.15,13.85,1.74,19.62,6.52c5.78,4.77,10.12,13.21,9.87,22.16c-0.24,9-4.83,16.72-9.65,23.14
		c-21.99,29.31-52.76,45.94-72.89,77.46c-4.35,6.83-8.22,14.47-9.81,23.11c-5.76,31.17,22.69,37.07,43.81,36.49
		c27.8-0.78,55.31,0.48,82.81,0.04c-27.5,0.44-55.01-0.82-82.81-0.04c-21.12,0.59-49.56-5.32-43.81-36.49
		c1.59-8.64,5.46-16.28,9.81-23.11c20.12-31.52,50.9-48.15,72.89-77.46c4.82-6.42,9.41-14.14,9.65-23.14
		c0.25-8.95-4.09-17.39-9.87-22.16c-5.77-4.78-12.79-6.38-19.62-6.52c-30.53-0.68-58.85-0.16-91.05-0.09
		c-3.97,0.01-7.19,3.23-7.19,7.2v37.34c0,4.81,4.62,8.27,9.23,6.91c2.71-0.8,5.41-1.65,8.03-2.04c5.24-0.79,12.71-0.85,13.72,6.84
		c0.35,2.67-0.33,5.41-1.47,7.78C23.47,113,11.01,119.82,1.96,129.86c-1.19,1.32-1.84,3.04-1.84,4.81v146.25
		c0,3.98,3.22,7.2,7.2,7.2h147.6c3.98,0,7.2-3.22,7.2-7.2V184.3c0-3.96-3.2-7.18-7.16-7.2
		C148.05,177.07,140.79,176.95,134.33,177.04z"/>
</g>
</svg>
