<?xml version="1.0" encoding="utf-8"?>
<!-- Generator: Adobe Illustrator 27.0.0, SVG Export Plug-In . SVG Version: 6.00 Build 0)  -->
<svg version="1.1" id="Layer_1" xmlns="http://www.w3.org/2000/svg" xmlns:xlink="http://www.w3.org/1999/xlink" x="0px" y="0px"
	 viewBox="0 0 162.25 288.61" style="enable-background:new 0 0 162.25 288.61;" xml:space="preserve">
<style type="text/css">
	.st0{fill:none;stroke:#000000;stroke-width:0.25;stroke-miterlimit:10;}
</style>
<g>
	<path class="st0" d="M151.97,72.12L151.97,72.12c5.68,0,10.28-4.6,10.28-10.28V10.4c0-5.68-4.6-10.28-10.28-10.28H98.6
		c-1.3,0-2.37,1.03-2.43,2.33c-1.52,33.26-30.17,34.62-30.17,69.67c0,36,30.24,36,30.24,72c0,36-30.24,36-30.24,72
		c0,35.07,28.69,36.8,30.17,70.15c0.06,1.3,1.13,2.33,2.43,2.33h53.37c5.68,0,10.28-4.6,10.28-10.28v-69.68
		c0-5.68-4.6-10.28-10.28-10.28h0c-8.57,0-15.52-6.95-15.52-15.52V87.64C136.45,79.07,143.4,72.12,151.97,72.12z"/>
	<path class="st0" d="M96.24,144.12c0-36-30.24-36-30.24-72c0-34.96,28.51-36.41,30.16-69.44c0.07-1.39-1.05-2.56-2.44-2.56H10.28
		C4.6,0.13,0,4.73,0,10.4v51.45c0,5.68,4.6,10.28,10.28,10.28h0c8.57,0,15.52,6.95,15.52,15.52v95.21c0,8.57-6.95,15.52-15.52,15.52
		h0C4.6,198.37,0,202.97,0,208.65v69.68c0,5.68,4.6,10.28,10.28,10.28h83.45c1.39,0,2.51-1.17,2.44-2.56
		c-1.6-33.13-30.16-34.94-30.16-69.93C66.01,180.12,96.24,180.12,96.24,144.12z"/>
</g>
</svg>
