<?xml version="1.0" encoding="utf-8"?>
<!-- Generator: Adobe Illustrator 27.0.0, SVG Export Plug-In . SVG Version: 6.00 Build 0)  -->
<svg version="1.1" id="Layer_1" xmlns="http://www.w3.org/2000/svg" xmlns:xlink="http://www.w3.org/1999/xlink" x="0px" y="0px"
	 viewBox="0 0 162.27 288.7" style="enable-background:new 0 0 162.27 288.7;" xml:space="preserve">
<style type="text/css">
	.st0{fill:none;stroke:#000000;stroke-width:0.25;stroke-miterlimit:10;}
</style>
<g>
	<path class="st0" d="M78.96,288.21c3.42,0,5.47-3.8,3.6-6.66l-35.85-54.78c-3.63-5.54-2.3-12.82,2.97-16.27
		c5.26-3.45,12.47-1.75,16.1,3.79l43.52,67.07c2.77,4.27,7.53,6.82,12.61,6.76l32.56-0.37c1.57-0.14,3.19-0.33,4.51-1.18
		c2.86-1.83,3.16-5.81,3.16-9.2c0-15,0-29.99,0-44.99c0-3.92-3.13-7.09-7.04-7.2c-10.59-0.28-21.55-1.39-30.71-5.74
		c-35.61-16.93-46.92-64.86-53.08-107.34c-6.47-44.69-30.24-70.25-63-74.78c-4.32-0.6-8.17,2.78-8.17,7.14
		c0.01,77.85,0.02,155.7,0.02,233.55c0,2.87,0.13,6.07,2.19,8.07c1.99,1.94,5.08,2.06,7.86,2.07c14.96,0.02,29.93,0.04,44.89,0.06
		H78.96z"/>
	<path class="st0" d="M153.13,0.55c3.14,0.2,6.28,0.49,8.09,4.38c0.65,1.39,0.91,2.93,0.91,4.46c0,69.53,0,139.05,0,208.58
		c0,4.07-3.37,7.31-7.44,7.2c-10.47-0.3-21.26-1.43-30.31-5.73c-35.61-16.93-46.92-64.86-53.08-107.34
		c-6.58-45.46-31.07-71.13-64.72-75c-3.66-0.42-6.45-3.47-6.45-7.16c0-6.25,0-12.5,0-18.75l0.01-7.08c0-1.93,1.56-3.49,3.49-3.49
		c13.64,0,33.61-0.1,45.97-0.1h0c4.68,0,9.05,2.37,11.6,6.3l43.88,67.62c3.63,5.54,10.83,7.24,16.1,3.79
		c5.26-3.45,6.59-10.73,2.97-16.27L87.12,5.39c-1.37-2.09,0.13-4.86,2.63-4.86h16.49L153.13,0.55z"/>
</g>
</svg>
