<?xml version="1.0" encoding="utf-8"?>
<!-- Generator: Adobe Illustrator 27.0.0, SVG Export Plug-In . SVG Version: 6.00 Build 0)  -->
<svg version="1.1" id="Layer_1" xmlns="http://www.w3.org/2000/svg" xmlns:xlink="http://www.w3.org/1999/xlink" x="0px" y="0px"
	 viewBox="0 0 162.25 288.25" style="enable-background:new 0 0 162.25 288.25;" xml:space="preserve">
<style type="text/css">
	.st0{fill:none;stroke:#000000;stroke-width:0.25;stroke-miterlimit:10;}
</style>
<path class="st0" d="M144.51,111.72c-6.55-8.09-16.36-27.62-4.76-35.09c4.94-3.18,9.81-4.12,15.54-4.39
	c3.83-0.18,6.84-3.35,6.84-7.19V43.34c0-3.99-3.25-7.22-7.25-7.2c-21.62,0.09-44.15,0.95-64.4,8.71c-8.62,3.3-17.22,8.51-22.2,16.52
	c-5.46,8.78-5.04,20.7-2.56,30.39c3.04,11.88,9.3,22.83,15.26,33.45c12.06,21.49,29.75,49.39,15.47,74.02
	c-12.82,22.12-42.15,25.89-64.81,25.89H7.32c-3.98,0-7.2,3.22-7.2,7.2v48.6c0,3.98,3.22,7.2,7.2,7.2h147.6c3.98,0,7.2-3.22,7.2-7.2
	V143.92c0-0.25-0.01-0.5-0.03-0.74C160.88,130.13,152.57,121.67,144.51,111.72z"/>
<path class="st0" d="M96.43,199.24c14.28-24.64-3.4-52.53-15.47-74.02c-5.96-10.62-12.22-21.57-15.26-33.45
	c-2.48-9.69-2.9-21.61,2.56-30.39c4.98-8.01,13.58-13.22,22.2-16.52c20.27-7.76,42.83-8.62,64.47-8.71
	c3.97-0.02,7.18-3.23,7.18-7.19V7.33c0-3.98-3.22-7.2-7.2-7.2H7.32c-3.98,0-7.2,3.22-7.2,7.2v92c0.36,14.42,9.46,25.26,18,35.8
	c6.55,8.09,14.07,23.88,2.47,31.36c-3.79,2.44-7.54,1.95-11.31,0.87c-4.6-1.31-9.16,2.24-9.16,7.02v43.55c0,3.98,3.22,7.2,7.2,7.2
	h24.3C54.29,225.12,83.61,221.36,96.43,199.24z"/>
</svg>
