<?xml version="1.0" encoding="utf-8"?>
<!-- Generator: Adobe Illustrator 27.0.0, SVG Export Plug-In . SVG Version: 6.00 Build 0)  -->
<svg version="1.1" id="Layer_1" xmlns="http://www.w3.org/2000/svg" xmlns:xlink="http://www.w3.org/1999/xlink" x="0px" y="0px"
	 viewBox="0 0 162.25 288.25" style="enable-background:new 0 0 162.25 288.25;" xml:space="preserve">
<style type="text/css">
	.st0{fill:none;stroke:#000000;stroke-width:0.25;stroke-miterlimit:10;}
</style>
<g>
	<path class="st0" d="M121.63,112.76c-20.25,0-20.25,62.38-40.5,62.38c-20.26,0-20.26-62.38-40.51-62.38
		c-18.88,0-20.16,54.22-36.65,61.56c-2.29,1.02-3.85,3.3-3.85,5.92l0,102.48c0,2.98,2.29,5.4,5.12,5.4l39.41,0
		c2.37,0,5.73-1.77,4.98-4.14c-11.59-36.42-9.49-67.92,0-67.92c8.51,0,14.72,38.54,19.07,60.52c1.18,5.97,5.75,10.72,11.49,11.43
		c6.94,0.87,13.21-3.99,14.61-11.03c4.39-22.07,13.76-60.93,22.33-60.93c9.46,0,9,36-0.66,67.76c-0.75,2.47,2.7,4.29,5.16,4.29
		l35.2,0c2.93,0,5.3-2.51,5.3-5.6V180.24c0-2.62-1.56-4.9-3.85-5.92C141.78,166.98,140.51,112.76,121.63,112.76z"/>
	<path class="st0" d="M131.21,0.53c-0.41,0.06-0.82,0.12-1.23,0.18c-44.36,0-30.86,62.36-48.86,62.36c-13.5,0,4.5-62.35-43.18-62.35
		c-0.42-0.06-0.83-0.12-1.24-0.18L4.98,0.13C2.31,0.09,0.12,2.37,0.12,5.19l0,162.24c0,4.63,5.36,6.8,8.35,3.41
		c12.42-14.11,15.15-58.08,32.15-58.08c20.25,0,20.25,62.38,40.51,62.38c20.25,0,20.25-62.38,40.5-62.38
		c17.08,0,19.75,44.41,32.33,58.29c2.94,3.25,8.16,0.89,8.16-3.6V5.2c0-2.82-2.19-5.1-4.86-5.06L131.21,0.53z"/>
</g>
</svg>
