<?xml version="1.0" encoding="utf-8"?>
<!-- Generator: Adobe Illustrator 27.0.0, SVG Export Plug-In . SVG Version: 6.00 Build 0)  -->
<svg version="1.1" id="Layer_1" xmlns="http://www.w3.org/2000/svg" xmlns:xlink="http://www.w3.org/1999/xlink" x="0px" y="0px"
	 viewBox="0 0 171.33 288.25" style="enable-background:new 0 0 171.33 288.25;" xml:space="preserve">
<style type="text/css">
	.st0{fill:none;stroke:#000000;stroke-width:0.25;stroke-miterlimit:10;}
</style>
<path class="st0" d="M80.53,23.14C68.7,33.59,48.13,46.88,56.28,66.51c0.05,0.13,0.12,0.26,0.18,0.38
	c7.22,12.71,21.52,13.52,33.8,14.71c29.88,2.89,41.56,32.89,29.15,58.23c-3.71,7.58-9.04,14.8-15.08,20.7
	c-9,8.79-19.36,15.67-15.73,35.09c0.04,0.21,0.1,0.43,0.19,0.63c13.51,31.29,50.88,29.43,79.7,29.16c1.47-0.01,2.66-1.21,2.66-2.68
	l-0.03-28.86c0-1.48-1.2-2.68-2.68-2.68l-13.05,0c-2.25,0-3.49-2.6-2.09-4.36c13.14-16.48,17.82-28.87,17.82-51.57
	c0-42.68,0-53.78,0-99.9c0-19.67-16.13-35.58-35.88-35.22c-10.72,0.2-24.1,0.26-38.05,0.26c-1.38,0-2.56,1.04-2.67,2.42
	C93.6,14.13,86.84,17.58,80.53,23.14z"/>
<circle class="st0" cx="78.53" cy="124.41" r="11.52"/>
<path class="st0" d="M168.46,225.4c-28.81,0.27-66.16,2.12-79.66-29.16
	c-0.09-0.2-0.15-0.41-0.19-0.63c-3.62-19.43,6.73-26.31,15.73-35.09c6.04-5.9,11.36-13.12,15.08-20.7
	c12.41-25.34,0.73-55.33-29.15-58.23c-12.28-1.19-26.58-2-33.8-14.71c-0.07-0.12-0.13-0.25-0.18-0.38
	C48.13,46.88,68.7,33.59,80.53,23.14c6.2-5.47,12.85-8.91,13.93-19.8c0.16-1.58-1.08-2.95-2.67-2.95
	C71.66,0.36,50.88,0.21,35.54,0.13C16,0.01,0.13,15.82,0.13,35.33l0,247.36c0,1.36,1.02,2.51,2.37,2.67
	c73.06,8.55,80.01-4.22,99.34-18.45c1.02-0.75,2.41-0.7,3.36,0.13c11.1,9.72,29.99,20.65,63.31,21.06c1.49,0.02,2.69-1.2,2.69-2.68
	l-0.05-57.34l0,0C171.16,226.59,169.95,225.38,168.46,225.4z"/>
</svg>
