<?xml version="1.0" encoding="utf-8"?>
<!-- Generator: Adobe Illustrator 27.0.0, SVG Export Plug-In . SVG Version: 6.00 Build 0)  -->
<svg version="1.1" id="Layer_1" xmlns="http://www.w3.org/2000/svg" xmlns:xlink="http://www.w3.org/1999/xlink" x="0px" y="0px"
	 viewBox="0 0 162.25 288.25" style="enable-background:new 0 0 162.25 288.25;" xml:space="preserve">
<style type="text/css">
	.st0{fill:none;stroke:#000000;stroke-width:0.25;stroke-miterlimit:10;}
</style>
<g>
	<path class="st0" d="M127.14,0.13c-4.83,0-8.31,4.67-6.89,9.28c20.29,65.97-26.87,91.83-60.77,101.76
		c-7.32,2.14-7.07,10.08,0.35,12.02c65.15,17.04,77.97,56.17,64.25,156.78c-0.59,4.32,2.78,8.16,7.13,8.16h23.71
		c3.98,0,7.2-3.22,7.2-7.2V7.33c0-3.98-3.22-7.2-7.2-7.2H127.14z"/>
	<path class="st0" d="M7.32,0.13c-3.98,0-7.2,3.22-7.2,7.2v273.6c0,3.98,3.22,7.2,7.2,7.2h31.75"/>
	<path class="st0" d="M116.68,288.12c3.59,0,6.64-2.66,7.13-6.22c14.15-102.05,1.59-141.57-63.98-158.72
		c-7.42-1.94-7.68-9.88-0.35-12.02c34.64-10.14,83.12-36.93,59.34-106.15c-1-2.92-3.74-4.9-6.82-4.9H81.04"/>
	<path class="st0" d="M48.21,287.69c2.75,0,4.97-2.23,4.97-4.97v-82.07c0-6.62,5.1-11.99,11.39-11.99c6.29,0,11.39,5.37,11.39,11.99
		v82.07c0,2.75,2.23,4.97,4.97,4.97"/>
	<path class="st0" d="M80.94,0.13c-2.75,0-4.97,2.23-4.97,4.97v38.55c0,6.62-5.1,11.99-11.39,11.99c-6.29,0-11.39-5.37-11.39-11.99
		V5.1c0-2.75-2.23-4.97-4.97-4.97"/>
</g>
</svg>
