<?xml version="1.0" encoding="utf-8"?>
<!-- Generator: Adobe Illustrator 27.0.0, SVG Export Plug-In . SVG Version: 6.00 Build 0)  -->
<svg version="1.1" id="Layer_1" xmlns="http://www.w3.org/2000/svg" xmlns:xlink="http://www.w3.org/1999/xlink" x="0px" y="0px"
	 viewBox="0 0 162.25 288.25" style="enable-background:new 0 0 162.25 288.25;" xml:space="preserve">
<style type="text/css">
	.st0{fill:none;stroke:#000000;stroke-width:0.25;stroke-miterlimit:10;}
</style>
<g>
	<path class="st0" d="M87.77,221.76c-14.04-2.62-25.85-4.92-36.79-16.11c-9.09-9.32-15.36-22.09-18.98-35.5
		c-4.81-17.78-5.48-36.99-4.47-55.5c0.88-16.15,3.12-32.68,10.19-46.57c17.59-34.54,68.91-46.21,90.15-9.92
		c8.32,14.23,7.54,26.83,7.3,42.34c-0.04,2.85,2.27,5.19,5.11,5.16c0.02,0,0.03,0,0.05,0c5.96-0.05,11.06-0.03,16.62-0.02
		c2.85,0.01,5.17-2.3,5.17-5.15V5.27c0-2.84-2.31-5.15-5.15-5.15H5.27c-2.84,0-5.15,2.31-5.15,5.15v277.7
		c0,2.84,2.31,5.15,5.15,5.15h151.7c2.84,0,5.15-2.31,5.15-5.15V230.3c0-2.86-2.32-5.17-5.18-5.15
		C135.6,225.29,111.04,226.1,87.77,221.76z"/>
	<path class="st0" d="M118.09,120.13c-5.37-0.04-10.73-0.1-16.1-0.19c-3.4-0.06-4.54-0.29-7.79,0.89c-3.91,1.42-7.07,4.57-7.56,8.46
		c-0.54,4.34-0.54,10.49,2.69,14.14c1.68,1.9,4.61,2.65,7.37,2.74c5.42,0.19,9.18-1.16,14.27,1.11c5.12,2.27,8.12,7.67,7.73,12.76
		c-0.1,1.34-0.44,2.66-0.98,3.9c-2.09,4.75-6.94,7.6-12.44,8.1c-7.5,0.68-15.7-0.05-21.91-3.99c-9.75-6.18-12.45-19.66-12.94-29.14
		c-0.75-14.42,0.47-28.94,4.06-43.02c1.91-7.51,7.66-15.63,17.59-15.63c4.48,0,8.84,2.03,11.36,5.42c3.05,4.1,1.76,8.44,1.84,13.05
		c0.06,3.41,0.51,5.38,4.76,6.57c2.07,0.58,9.87,0.37,12.01,0.38c2.18,0,4.37,0.01,6.55,0.01c0.48,0,0.96,0,1.44,0
		c2.82,0,5.1-2.27,5.15-5.09c0.24-15.55,1.04-28.18-7.3-42.43c-21.24-36.29-72.56-24.62-90.15,9.92
		c-7.07,13.89-9.31,30.42-10.19,46.57c-1.02,18.51-0.34,37.72,4.47,55.5c3.62,13.42,9.89,26.18,18.98,35.5
		c10.93,11.19,22.75,13.49,36.79,16.11c23.3,4.35,47.88,3.53,69.25,3.39c2.83-0.02,5.11-2.32,5.11-5.15v-94.7
		c0-2.85-2.31-5.15-5.15-5.15C144.01,120.17,131.05,120.22,118.09,120.13z"/>
</g>
</svg>
