<?xml version="1.0" encoding="utf-8"?>
<!-- Generator: Adobe Illustrator 27.0.0, SVG Export Plug-In . SVG Version: 6.00 Build 0)  -->
<svg version="1.1" id="Layer_1" xmlns="http://www.w3.org/2000/svg" xmlns:xlink="http://www.w3.org/1999/xlink" x="0px" y="0px"
	 viewBox="0 0 162.25 288.25" style="enable-background:new 0 0 162.25 288.25;" xml:space="preserve">
<style type="text/css">
	.st0{fill:none;stroke:#000000;stroke-width:0.25;stroke-miterlimit:10;}
</style>
<path class="st0" d="M0.12,7.33v57.6c0,3.98,3.22,7.2,7.2,7.2h18.16c16.03,0,28.84,13.42,28,29.43
	c-0.72,13.78-2.53,33.07-6.52,59.23c-6.59,43.19-6.95,71.88-6.66,84.31c0.09,3.91,3.29,7.03,7.2,7.03h67.23
	c3.91,0,7.11-3.12,7.2-7.03c0.29-12.43-0.06-41.13-6.66-84.31c-3.99-26.16-5.8-45.45-6.52-59.23c-0.84-16.01,11.97-29.43,28-29.43
	h18.16c3.98,0,7.2-3.22,7.2-7.2V7.33c0-3.98-3.22-7.2-7.2-7.2H7.32C3.35,0.13,0.12,3.35,0.12,7.33z"/>
<path class="st0" d="M108.76,101.55c0.72,13.78,2.53,33.07,6.52,59.23c6.59,43.19,6.95,71.88,6.66,84.31
	c-0.09,3.91-3.29,7.03-7.2,7.03H47.51c-3.91,0-7.11-3.12-7.2-7.03c-0.29-12.43,0.06-41.13,6.66-84.31
	c3.99-26.16,5.8-45.45,6.52-59.23c0.84-16.01-11.97-29.43-28-29.43H7.32c-3.98,0-7.2,3.22-7.2,7.2v201.6c0,3.98,3.22,7.2,7.2,7.2
	h147.6c3.98,0,7.2-3.22,7.2-7.2V79.32c0-3.98-3.22-7.2-7.2-7.2h-18.16C120.73,72.12,107.92,85.54,108.76,101.55z"/>
</svg>
