<?xml version="1.0" encoding="utf-8"?>
<!-- Generator: Adobe Illustrator 27.0.0, SVG Export Plug-In . SVG Version: 6.00 Build 0)  -->
<svg version="1.1" id="Layer_1" xmlns="http://www.w3.org/2000/svg" xmlns:xlink="http://www.w3.org/1999/xlink" x="0px" y="0px"
	 viewBox="0 0 162 288" style="enable-background:new 0 0 162 288;" xml:space="preserve">
<style type="text/css">
	.st0{fill:none;stroke:#000000;stroke-width:0.25;stroke-miterlimit:10;}
</style>
<path class="st0" d="M27.04,58.81l28.94,172.94c1.42,8.51,12.63,10.69,17.13,3.34l87.7-143.15c0.69-1.13,1.06-2.43,1.06-3.76V7.2
	c0-3.98-3.22-7.2-7.2-7.2h-28.06c-2.82,0-5.39,1.65-6.55,4.22L96.98,54.97c-3.02,6.64-12.87,5.1-13.71-2.15L77.89,6.37
	C77.47,2.74,74.4,0,70.74,0H7.07c-3.98,0-7.2,3.22-7.2,7.2v22.22c0,3.37,2.29,6.38,5.59,7.07C16.34,38.79,25.15,47.51,27.04,58.81z"
	/>
<path class="st0" d="M73.11,235.09c-4.51,7.35-15.71,5.17-17.13-3.34L27.04,58.81C25.38,48.92,18.43,41,9.43,37.64
	c-4.64-1.73-9.55,1.85-9.55,6.8c0,39.07,0,200.27,0,236.36c0,3.98,3.22,7.19,7.2,7.19h147.6c3.98,0,7.2-3.22,7.2-7.2V101.24
	c0-3.14-4.12-4.3-5.77-1.63L73.11,235.09z"/>
</svg>
