<?xml version="1.0" encoding="utf-8"?>
<!-- Generator: Adobe Illustrator 27.0.0, SVG Export Plug-In . SVG Version: 6.00 Build 0)  -->
<svg version="1.1" id="Layer_1" xmlns="http://www.w3.org/2000/svg" xmlns:xlink="http://www.w3.org/1999/xlink" x="0px" y="0px"
	 viewBox="0 0 162.25 288.25" style="enable-background:new 0 0 162.25 288.25;" xml:space="preserve">
<style type="text/css">
	.st0{fill:none;stroke:#000000;stroke-width:0.25;stroke-miterlimit:10;}
</style>
<g>
	<path class="st0" d="M7.32,0.13c-3.98,0-7.2,3.22-7.2,7.2v107.81c0,2.78,1.64,5.24,4.12,6.51c15.19,7.77,17.06,46.33,35.62,46.33
		c20.63,0,20.63-34.54,41.26-34.54c20.63,0,20.63,34.54,41.27,34.54c18.55,0,20.43-38.56,35.62-46.33c2.48-1.27,4.12-3.72,4.12-6.51
		V7.33c0-3.98-3.22-7.2-7.2-7.2"/>
	<path class="st0" d="M116.16,288.12h38.77c3.98,0,7.2-3.22,7.2-7.2V128.94c0-4.73-5.84-6.93-8.98-3.39
		c-11.01,12.4-14.39,42.42-30.76,42.42c-20.63,0-20.63-34.54-41.27-34.54c-20.63,0-20.63,34.54-41.26,34.54
		c-16.39,0-19.76-30.08-30.79-42.46c-3.13-3.52-8.94-1.33-8.94,3.38l0,152.03c0,3.98,3.22,7.2,7.2,7.2"/>
	<path class="st0" d="M64.59,287.69c2.75,0,4.97-2.23,4.97-4.97v-82.07c0-6.62,5.1-11.99,11.39-11.99c6.29,0,11.39,5.37,11.39,11.99
		v82.07c0,2.75,2.23,4.97,4.97,4.97"/>
	<path class="st0" d="M97.32,0.13c-2.75,0-4.97,2.23-4.97,4.97v82.07c0,6.62-5.1,11.99-11.39,11.99c-6.29,0-11.39-5.37-11.39-11.99
		V5.1c0-2.75-2.23-4.97-4.97-4.97"/>
</g>
</svg>
