<?xml version="1.0" encoding="utf-8"?>
<!-- Generator: Adobe Illustrator 27.0.0, SVG Export Plug-In . SVG Version: 6.00 Build 0)  -->
<svg version="1.1" id="Layer_1" xmlns="http://www.w3.org/2000/svg" xmlns:xlink="http://www.w3.org/1999/xlink" x="0px" y="0px"
	 viewBox="0 0 162 288" style="enable-background:new 0 0 162 288;" xml:space="preserve">
<style type="text/css">
	.st0{fill:none;stroke:#000000;stroke-width:0.25;stroke-miterlimit:10;}
</style>
<path class="st0" d="M87.35,144.37C3.56,120.53,111.71,39.7,7.11,36.28C3.23,36.15,0,39.24,0,43.13v44.69c0,1.18,0.3,2.33,0.87,3.36
	c5.43,9.71,11.26,19.15,17.1,28.5c3.4,5.45,6.23,12,5.48,18.71c-0.86,7.71-5.94,13.27-9.65,19.23c-4.4,7.06-8.65,14.38-12.87,21.61
	C0.32,180.27,0,181.46,0,182.67v98.48c0,3.78,3.07,6.85,6.85,6.85h43.52c2.44,0,4.69-1.3,5.92-3.4c3.05-5.21,5.95-10.39,8.6-15.87
	c2.81-5.81,5.89-12.54,11.48-16.21c9.35-6.14,23.69,20.28,29.48,31.72c1.17,2.31,3.53,3.76,6.11,3.76h43.18
	c3.78,0,6.85-3.07,6.85-6.85v-22.17c0-3.67-2.9-6.7-6.57-6.84C62.68,248.61,171.66,168.36,87.35,144.37z"/>
<path class="st0" d="M139.8,133.57c-0.71-7.27,1.98-14.37,5.22-20.28c5.6-10.21,11.08-20.52,16.28-31.13
	c0.46-0.94,0.7-1.98,0.7-3.04V6.85c0-3.78-3.07-6.85-6.85-6.85h-43.18c-2.58,0-4.95,1.45-6.11,3.76
	c-5.79,11.44-20.14,37.86-29.48,31.72c-5.59-3.67-8.67-10.4-11.48-16.21c-2.65-5.47-5.55-10.66-8.6-15.87C55.06,1.3,52.81,0,50.37,0
	H6.85C3.07,0,0,3.07,0,6.85v22.56c0,3.71,2.96,6.73,6.67,6.85c105.34,3.21-3.23,84.23,80.68,108.11
	c84.13,23.94-24.21,103.9,67.5,107.73c3.89,0.16,7.15-2.95,7.15-6.85v-64.08c0-1.08-0.26-2.15-0.75-3.11
	c-4.05-7.92-8.04-15.93-12.27-23.66C145.45,147.94,140.61,141.92,139.8,133.57z"/>
</svg>
