<?xml version="1.0" encoding="utf-8"?>
<!-- Generator: Adobe Illustrator 27.0.0, SVG Export Plug-In . SVG Version: 6.00 Build 0)  -->
<svg version="1.1" id="Layer_1" xmlns="http://www.w3.org/2000/svg" xmlns:xlink="http://www.w3.org/1999/xlink" x="0px" y="0px"
	 viewBox="0 0 162.25 288.25" style="enable-background:new 0 0 162.25 288.25;" xml:space="preserve">
<style type="text/css">
	.st0{fill:none;stroke:#000000;stroke-width:0.25;stroke-miterlimit:10;}
</style>
<path class="st0" d="M0.13,7.33v21.6c0,3.98,3.22,7.2,7.2,7.2H40.5c52.19,0,84.8,42.31,84.8,94.5v0c0,52.19-32.61,94.5-84.8,94.5
	H7.33c-3.98,0-7.2,3.22-7.2,7.2v48.6c0,3.98,3.22,7.2,7.2,7.2h147.6c3.98,0,7.2-3.22,7.2-7.2V7.33c0-3.98-3.22-7.2-7.2-7.2H7.33
	C3.35,0.13,0.13,3.35,0.13,7.33z"/>
<path class="st0" d="M40.5,225.13H7.33c-3.98,0-7.2-3.22-7.2-7.2V43.33c0-3.98,3.22-7.2,7.2-7.2H40.5c52.19,0,84.8,42.31,84.8,94.5
	v0C125.31,182.82,92.69,225.13,40.5,225.13z M56.65,121.63c-6.36,0-11.52,5.16-11.52,11.52c0,6.36,5.16,11.52,11.52,11.52
	s11.52-5.16,11.52-11.52C68.17,126.78,63.01,121.63,56.65,121.63z"/>
</svg>
