<?xml version="1.0" encoding="utf-8"?>
<!-- Generator: Adobe Illustrator 27.0.0, SVG Export Plug-In . SVG Version: 6.00 Build 0)  -->
<svg version="1.1" id="Layer_1" xmlns="http://www.w3.org/2000/svg" xmlns:xlink="http://www.w3.org/1999/xlink" x="0px" y="0px"
	 viewBox="0 0 162 288" style="enable-background:new 0 0 162 288;" xml:space="preserve">
<style type="text/css">
	.st0{fill:none;stroke:#000000;stroke-width:0.25;stroke-miterlimit:10;}
</style>
<path class="st0" d="M137.3,265.11c-8.71-14.93,0.03-25.62-8.68-40.56c-8.71-14.93-17.44-4.26-26.16-19.19
	c-8.71-14.93,0.03-25.62-8.68-40.56c-8.71-14.93-17.44-4.26-26.16-19.19c-8.71-14.93,0.03-25.61-8.68-40.55
	c-8.71-14.94-17.44-4.26-26.15-19.19c-8.71-14.94,0.02-25.62-8.69-40.56c-5.5-9.44-11.02-8.65-16.53-10.56
	C5,33.86,2.18,35.33,1.62,38C0.57,42.97,0,48.25,0,53.73c0,0,0,35.88,0,35.88c0,13.73,3.49,28.03,11.52,39.33
	c1.76,2.47,3.73,4.8,5.96,6.86c1.75,1.61,4.98,3.01,6.28,4.91c3.78,5.54-3.78,9.11-6.91,12.05c-3.54,3.33-6.45,7.32-8.79,11.57
	C2.47,174.47,0,186.22,0,197.73v35.88c0,29.61,16.57,53.6,37.02,53.6h21.7c13.06,0,24.5-10.02,30.87-25.04
	c1.4-3.31,5.89-3.8,7.93-0.84l14.48,20.97c2.53,3.66,6.55,5.82,10.84,5.82h34.62c2.51,0,4.54-2.03,4.54-4.54l0,0
	c0-1.04-0.35-2.07-1.02-2.87C153.09,271.15,145.19,278.63,137.3,265.11z"/>
	<circle class="st0" cx="50.75" cy="217.87" r="10.5"/>
<path class="st0" d="M143.89,134.8c0.06-0.09,0.13-0.19,0.19-0.28c4.59-6.8,11.13-11.66,16.89-17.39c2.6-3.89-0.03-9.25-4.54-9.25
	c-5.41,0-2.39-0.6-13.17-0.22c-1.85,0.07-3.69-0.04-5.54-0.12c-3.29-0.14-7.93,1.49-10.45-1.5c-3.55-4.22,1.2-7.02,3.66-9.99
	c2.79-3.37,5.04-7.17,6.85-11.15c4.1-9.02,5.93-19.02,5.93-28.9c0,0,0-4.36,0-4.36c0-28.46-15.44-51.52-34.48-51.52H71.41H37.02
	c-13.83,0-25.89,10.98-32.25,27.24c-1.25,3.2,0.58,6.76,3.88,7.73c5.15,1.51,10.3,1.39,15.45,10.22
	c8.71,14.93-0.02,25.61,8.69,40.56c8.71,14.93,17.44,4.25,26.15,19.19c8.71,14.93-0.02,25.61,8.68,40.55
	c8.71,14.93,17.45,4.26,26.16,19.19c8.71,14.93-0.02,25.62,8.68,40.56c8.71,14.93,17.44,4.26,26.16,19.19
	c8.71,14.93-0.02,25.62,8.68,40.56c6,10.28,12.01,8.42,18.01,11.14c3.14,1.42,6.7-0.84,6.7-4.28V252.7
	c0-20.36-5.98-40.23-17.1-56.86c0,0-1.39-2.08-1.39-2.08c-7.7-11.51-10.15-26.3-7.42-39.93
	C137.45,147.07,140.07,140.55,143.89,134.8z"/>
	<circle class="st0" cx="83.16" cy="54.13" r="10.5"/>
</svg>
