<?xml version="1.0" encoding="utf-8"?>
<!-- Generator: Adobe Illustrator 27.0.0, SVG Export Plug-In . SVG Version: 6.00 Build 0)  -->
<svg version="1.1" id="Layer_1" xmlns="http://www.w3.org/2000/svg" xmlns:xlink="http://www.w3.org/1999/xlink" x="0px" y="0px"
	 viewBox="0 0 162.25 288.25" style="enable-background:new 0 0 162.25 288.25;" xml:space="preserve">
<style type="text/css">
	.st0{fill:none;stroke:#000000;stroke-width:0.25;stroke-miterlimit:10;}
</style>
<g>
	<path class="st0" d="M128.12,231.56c0.53-0.28,1.05-0.59,1.58-0.9"/>
	<path class="st0" d="M119.71,55.55c-0.78-0.02-1.56-0.03-2.34-0.03"/>
	<path class="st0" d="M124.42,55.76c-0.62-0.04-1.24-0.08-1.86-0.1"/>
	<path class="st0" d="M126.6,55.93c-0.51-0.04-1-0.08-1.51-0.12"/>
	<path class="st0" d="M131.28,56.45c-0.55-0.08-1.09-0.15-1.64-0.21c-0.73-0.08-1.45-0.16-2.16-0.23"/>
	<path class="st0" d="M136.93,57.33c-0.67-0.12-1.33-0.23-2-0.34"/>
	<path class="st0" d="M138.98,57.72c-0.59-0.12-1.17-0.23-1.77-0.33"/>
	<path class="st0" d="M148.16,217.67c3.96-3.22,7.82-6.56,11.68-9.93c1.45-1.27,2.28-3.1,2.28-5.03v-15.39v-23.1
		c0-6.29-6.59-10.38-12.27-7.66c-43.53,20.86-51.62,1.37-51.62-9.76c0-11.07,16.4-37.19,53.07-26.71
		c5.43,1.55,10.83-2.57,10.83-8.21V70.65c0-3.6-2.27-6.81-5.67-8.03c-1.76-0.64-3.54-1.23-5.32-1.79"/>
	<path class="st0" d="M162.12,224.25c0-7.19-8.37-11.12-13.96-6.58c-0.88,0.72-1.76,1.42-2.65,2.12s-1.78,1.39-2.69,2.07
		c-0.87,0.67-1.76,1.32-2.65,1.96c-0.05,0.04-0.09,0.07-0.14,0.11c-0.88,0.64-1.77,1.26-2.66,1.88c-0.02,0.01-0.04,0.02-0.06,0.05
		c-0.38,0.25-0.77,0.51-1.15,0.78c-1.65,1.11-3.34,2.18-5.06,3.21c-0.3,0.19-0.61,0.36-0.92,0.54c-0.16,0.1-0.32,0.19-0.49,0.28
		c-0.53,0.31-1.05,0.61-1.58,0.9c-0.8,0.44-1.6,0.88-2.41,1.3c-35.18,18.32-82.73,6.22-93.46-35.35
		c-9.42-36.55-2.31-76.96,18.66-108.32c15.87-23.72,40.54-33.69,66.46-33.68c0.78,0,1.56,0.01,2.34,0.03
		c0.95,0.02,1.9,0.05,2.85,0.11c0.62,0.02,1.24,0.06,1.86,0.1c0.22,0.01,0.44,0.03,0.67,0.05c0.51,0.04,1,0.08,1.51,0.12
		c0.29,0.02,0.59,0.05,0.88,0.08c0.72,0.07,1.45,0.15,2.16,0.23c0.55,0.06,1.09,0.13,1.64,0.21c1.21,0.15,2.44,0.33,3.65,0.53
		c0.67,0.11,1.33,0.22,2,0.34c0.1,0.02,0.19,0.04,0.28,0.06c0.6,0.1,1.18,0.22,1.77,0.33c0.54,0.11,1.07,0.22,1.61,0.34
		c0.71,0.15,1.41,0.3,2.1,0.47c0.92,0.21,1.84,0.43,2.76,0.68c1.88,0.48,3.74,1.02,5.6,1.59c0.03,0.01,0.05,0.02,0.08,0.02
		c5.47,1.64,10.99-2.44,10.99-8.15V6.83c0-3.7-3-6.7-6.7-6.7H6.83c-3.7,0-6.7,3-6.7,6.7v274.59c0,3.7,3,6.7,6.7,6.7h148.58
		c3.71,0,6.72-3.01,6.72-6.72V224.25z"/>
</g>
</svg>
