<?xml version="1.0" encoding="utf-8"?>
<!-- Generator: Adobe Illustrator 27.0.0, SVG Export Plug-In . SVG Version: 6.00 Build 0)  -->
<svg version="1.1" id="Layer_1" xmlns="http://www.w3.org/2000/svg" xmlns:xlink="http://www.w3.org/1999/xlink" x="0px" y="0px"
	 viewBox="0 0 162.25 288.25" style="enable-background:new 0 0 162.25 288.25;" xml:space="preserve">
<style type="text/css">
	.st0{fill:none;stroke:#000000;stroke-width:0.25;stroke-miterlimit:10;}
</style>
<g>
	<path class="st0" d="M105.93,79.13c12.33,15.49,19.81,35.79,19.81,58.02c0,48.59-35.72,87.97-79.78,87.97h-0.84H7.32
		c-3.98,0-7.2,3.22-7.2,7.2v48.6c0,3.98,3.22,7.2,7.2,7.2h147.6c3.98,0,7.2-3.22,7.2-7.2V79.32c0-3.98-3.22-7.2-7.2-7.2h-44.86
		C105.98,72.12,103.59,76.18,105.93,79.13z"/>
	<path class="st0" d="M7.32,0.13c-3.98,0-7.2,3.22-7.2,7.2v83.36c0.22,0,0.44,0,0.66,0c15.75,0,35.5-3.01,49.42,4.98
		c16.25,9.32,16.19,30.71,13.13,44.68c-1.6,7.31-6.37,15.22-14.22,16.83c-4.54,0.93-9.73-0.34-13.08-3.59
		c-5.96-5.77-3.43-14.49-3.29-21.84c0.08-4.05,0.67-14.61-5.62-14.61H7.32c-3.98,0-7.2,3.22-7.2,7.2v93.6c0,3.98,3.22,7.2,7.2,7.2
		h37.8h0.84c44.06,0,79.78-39.39,79.78-87.97c0-22.23-7.48-42.53-19.81-58.02c-2.35-2.95,0.05-7.01,4.13-7.01h44.86
		c3.98,0,7.2-3.22,7.2-7.2V7.33c0-3.98-3.22-7.2-7.2-7.2H7.32z"/>
</g>
</svg>
