<?xml version="1.0" encoding="utf-8"?>
<!-- Generator: Adobe Illustrator 27.0.0, SVG Export Plug-In . SVG Version: 6.00 Build 0)  -->
<svg version="1.1" id="Layer_1" xmlns="http://www.w3.org/2000/svg" xmlns:xlink="http://www.w3.org/1999/xlink" x="0px" y="0px"
	 viewBox="0 0 162.25 288.25" style="enable-background:new 0 0 162.25 288.25;" xml:space="preserve">
<style type="text/css">
	.st0{fill:none;stroke:#000000;stroke-width:0.25;stroke-miterlimit:10;}
</style>
<circle class="st0" cx="55.87" cy="87.88" r="11.39"/>
<path class="st0" d="M116.07,288.13c3.29,0,6.17-2.23,6.98-5.42c11.4-44.95,13.1-95.3-30.22-124.17
	c-6.16-4.1-12.87-7.49-19.91-9.79c-1.69-0.55-4.02-1.6-4.35-3.58c-0.4-2.41,2.12-4.03,4.08-4.63c7.33-2.21,14.37-3.9,21.27-7.44
	c11.63-5.97,21.46-15.33,25.58-27.99c1.1-3.4,1.79-6.92,2.11-10.47c1.45-15.98-3.19-35.46-17.12-45.19
	c-14.69-10.26-33.2-12.52-50.66-13.16c-2.9-0.11-5.81-0.15-8.71-0.15H7.32c-3.98,0-7.2,3.22-7.2,7.2v237.6c0,3.98,3.22,7.2,7.2,7.2
	 M40.01,287.69c2.75,0,4.97-2.23,4.97-4.97v-70.28c0-6.62,5.1-11.99,11.39-11.99s11.39,5.37,11.39,11.99v70.28
	c0,2.75,2.23,4.97,4.97,4.97"/>
<path class="st0" d="M0.12,7.33v21.6c0,3.98,3.22,7.2,7.2,7.2h37.8c2.91,0,5.81,0.05,8.71,0.15c17.47,0.63,35.97,2.89,50.66,13.16
	c13.93,9.73,18.58,29.21,17.12,45.19c-0.32,3.55-1.01,7.08-2.11,10.47c-4.12,12.66-13.95,22.02-25.58,27.99
	c-6.89,3.54-13.94,5.23-21.27,7.44c-1.97,0.59-4.49,2.22-4.08,4.63c0.33,1.98,2.66,3.03,4.35,3.58c7.04,2.29,13.75,5.68,19.91,9.79
	c42.2,28.14,41.67,76.66,31.07,120.71c-1.09,4.53,2.33,8.89,6.99,8.89h24.02c3.98,0,7.2-3.22,7.2-7.2V7.33c0-3.98-3.22-7.2-7.2-7.2
	H7.32C3.35,0.13,0.12,3.35,0.12,7.33z"/>
</svg>
