<?xml version="1.0" encoding="utf-8"?>
<!-- Generator: Adobe Illustrator 27.0.0, SVG Export Plug-In . SVG Version: 6.00 Build 0)  -->
<svg version="1.1" id="Layer_1" xmlns="http://www.w3.org/2000/svg" xmlns:xlink="http://www.w3.org/1999/xlink" x="0px" y="0px"
	 viewBox="0 0 162.25 288.25" style="enable-background:new 0 0 162.25 288.25;" xml:space="preserve">
<style type="text/css">
	.st0{fill:none;stroke:#000000;stroke-width:0.25;stroke-miterlimit:10;}
</style>
<path class="st0" d="M107.45,239.88c0-46.29-62.33-48.75-62.33-95.04c0-46.29,62.33-50.51,62.33-96.81c0-22.6-10.4-32.9-21.05-43.06
	c-3.25-3.1-7.56-4.84-12.06-4.84l-29.93,0c-24.46,0-44.29,19.83-44.29,44.29v199.42c0,24.46,19.83,44.29,44.29,44.29h29.77
	c5.16,0,10.1-2.06,13.74-5.72C98.02,272.24,107.45,261.39,107.45,239.88z"/>
<circle class="st0" cx="83.5" cy="143.6" r="11.52"/>
<path class="st0" d="M117.83,0.13l-28.26,0c-2.98,0-4.43,3.63-2.28,5.69c10.33,9.9,20.17,20.24,20.17,42.22
	c0,46.29-62.33,50.51-62.33,96.81c0,46.29,62.33,48.75,62.33,95.04c0,21.84-9.72,32.69-19.98,42.99c-1.94,1.94-0.56,5.26,2.19,5.26
	h28.17c24.46,0,44.29-19.83,44.29-44.29V44.42C162.13,19.96,142.3,0.13,117.83,0.13z"/>
</svg>
