<?xml version="1.0" encoding="utf-8"?>
<!-- Generator: Adobe Illustrator 27.0.0, SVG Export Plug-In . SVG Version: 6.00 Build 0)  -->
<svg version="1.1" id="Layer_1" xmlns="http://www.w3.org/2000/svg" xmlns:xlink="http://www.w3.org/1999/xlink" x="0px" y="0px"
	 viewBox="0 0 162.25 288.25" style="enable-background:new 0 0 162.25 288.25;" xml:space="preserve">
<style type="text/css">
	.st0{fill:none;stroke:#000000;stroke-width:0.25;stroke-miterlimit:10;}
</style>
<path class="st0" d="M154.93,0.13H7.32c-3.98,0-7.2,3.22-7.2,7.2v273.6c0,3.98,3.22,7.2,7.2,7.2h92.52c4.4,0,7.8-3.92,7.13-8.26
	c-3.34-21.66-9.01-43.02-16.17-63.88c-4.41-12.84-16.46-30.28-8.54-43.86c8.7-14.92,29.46,1.56,40.22-8.2
	c7.3-6.62,3.31-25.93,1.43-34.04c-0.65-2.82-1.5-5.69-3.39-7.98c-8.44-10.29-27.01,0.02-37.02-8.2
	c-9.32-7.65-10.21-27.08-2.12-35.45c7.44-7.69,27.69-5.91,38.01-6.01c14.25-0.14,28.49-0.18,42.75-0.11
	c-14.25-0.07-28.49-0.03-42.75,0.11c-10.32,0.1-30.57-1.68-38.01,6.01c-8.09,8.37-7.2,27.8,2.12,35.45
	c10.02,8.22,28.59-2.09,37.02,8.2c1.89,2.3,2.74,5.17,3.39,7.98c1.87,8.12,5.86,27.42-1.43,34.04c-10.76,9.76-31.52-6.72-40.22,8.2
	c-7.92,13.58,4.13,31.02,8.54,43.86c7.4,21.53,13.21,43.61,16.49,66c0.52,3.53,3.55,6.14,7.11,6.14h40.52c3.98,0,7.2-3.22,7.2-7.2
	V7.33C162.12,3.35,158.9,0.13,154.93,0.13z"/>
</svg>
