<?xml version="1.0" encoding="utf-8"?>
<!-- Generator: Adobe Illustrator 27.0.0, SVG Export Plug-In . SVG Version: 6.00 Build 0)  -->
<svg version="1.1" id="Layer_1" xmlns="http://www.w3.org/2000/svg" xmlns:xlink="http://www.w3.org/1999/xlink" x="0px" y="0px"
	 viewBox="0 0 162.25 288.25" style="enable-background:new 0 0 162.25 288.25;" xml:space="preserve">
<style type="text/css">
	.st0{fill:none;stroke:#000000;stroke-width:0.25;stroke-miterlimit:10;}
</style>
<g>
	<path class="st0" d="M154.67,182.49c2.8-2.21,6.65,0.01,6.67,3.86l0.73,90.87l0.04,6.07c0.02,2.65-1.89,4.82-4.24,4.82H4.37
		c-2.34,0-4.24-2.14-4.24-4.78V4.91c0-2.64,1.9-4.78,4.24-4.78h75.1c1.77,0,3.36,1.24,3.98,3.11c0.05,0.18,0.12,0.36,0.17,0.54"/>
	<path class="st0" d="M83.61,3.78c-0.1-0.31-0.14-0.63-0.14-0.93c0-1.44,1.04-2.72,2.42-2.72h73.48c1.32,0,2.41,1.21,2.42,2.71
		l0.04,4.37c0,0-0.66,156.14-0.66,156.14c0.03,3.88,0.76,8.51,0.09,12.29c-0.54,3.05-4.53,5.24-6.59,6.85
		c-0.03,0.01-0.04,0.03-0.07,0.05c-18.98,14.87-44.94,37-69.34,24.6c-19.08-9.7-22.12-30.88-19.1-52.03
		C73.44,103.94,100.66,56.85,83.61,3.78z"/>
</g>
</svg>
