<?xml version="1.0" encoding="utf-8"?>
<!-- Generator: Adobe Illustrator 27.0.0, SVG Export Plug-In . SVG Version: 6.00 Build 0)  -->
<svg version="1.1" id="Layer_1" xmlns="http://www.w3.org/2000/svg" xmlns:xlink="http://www.w3.org/1999/xlink" x="0px" y="0px"
	 viewBox="0 0 162.25 288.25" style="enable-background:new 0 0 162.25 288.25;" xml:space="preserve">
<style type="text/css">
	.st0{fill:none;stroke:#000000;stroke-width:0.25;stroke-miterlimit:10;}
</style>
<path class="st0" d="M40.62,175.49c20.25,0,20.25-62.38,40.5-62.38c20.26,0,20.26,62.38,40.51,62.38
	c18.88,0,20.16-54.22,36.65-61.56c2.29-1.02,3.85-3.3,3.85-5.92V5.53c0-2.98-2.29-5.4-5.12-5.4l-39.41,0
	c-2.37,0-5.73,1.77-4.98,4.14c11.59,36.42,9.49,67.92,0,67.92c-8.51,0-14.72-38.54-19.07-60.52C92.37,5.69,87.8,0.94,82.06,0.23
	c-6.94-0.87-13.21,3.99-14.61,11.03c-4.39,22.07-13.76,60.93-22.33,60.93c-9.46,0-9-36,0.66-67.76c0.75-2.47-2.7-4.29-5.16-4.29
	l-35.2,0c-2.93,0-5.3,2.51-5.3,5.6l0,102.28c0,2.62,1.56,4.9,3.85,5.92C20.47,121.27,21.74,175.49,40.62,175.49z"/>
<path class="st0" d="M31.04,287.72c0.41-0.06,0.82-0.12,1.23-0.18c44.36,0,30.86-62.36,48.86-62.36c13.5,0-4.5,62.35,43.18,62.35
	c0.42,0.06,0.83,0.12,1.24,0.18l31.73,0.41c2.67,0.03,4.85-2.24,4.85-5.06V120.82c0-4.63-5.36-6.8-8.35-3.41
	c-12.42,14.11-15.15,58.08-32.15,58.08c-20.25,0-20.25-62.38-40.51-62.38c-20.25,0-20.25,62.38-40.5,62.38
	c-17.08,0-19.75-44.41-32.33-58.29c-2.94-3.25-8.16-0.89-8.16,3.6l0,162.25c0,2.82,2.19,5.1,4.86,5.06L31.04,287.72z"/>
</svg>
