<svg width="16" height="16" viewBox="0 0 16 16" fill="none" xmlns="http://www.w3.org/2000/svg">
<g clip-path="url(#clip0_223_1804)">
<rect width="16" height="16" fill="#B04B17"/>
<path fill-rule="evenodd" clip-rule="evenodd" d="M7.39425 3.46541C6.896 3.71374 6.57691 4.08733 6.42575 4.59933C6.32716 4.93308 6.31683 4.94216 6.25625 4.74749C5.90475 3.61774 4.2585 3.38308 3.3135 4.32808C2.48425 5.15733 2.55433 6.32666 3.46358 6.83183L3.83858 7.04016L3.15608 7.11049L2.47358 7.18083L2.43041 7.61049C2.35608 8.35091 2.29641 12.7484 2.36075 12.7505C2.56608 12.7571 10.1078 12.2302 10.1927 12.2033C10.2706 12.1787 10.2969 11.8217 10.2969 10.7927C10.2969 10.0351 10.3251 9.41566 10.3594 9.41624C10.3937 9.41674 11.1344 9.86374 12.0052 10.4095L13.5886 11.4017L13.6117 10.2468C13.6243 9.61166 13.6243 8.55283 13.6117 7.89374L13.5886 6.69558L11.9636 7.33616L10.3386 7.97674L10.315 7.16674L10.2913 6.35683L9.85666 6.39674L9.42191 6.43658L9.60658 6.23599C10.081 5.72074 10.1697 4.83583 9.81491 4.15674C9.36991 3.30482 8.31883 3.00474 7.39425 3.46541ZM8.65516 4.72991C8.75783 4.82249 8.79716 4.95791 8.78016 5.16033C8.74683 5.55541 8.43333 5.72308 7.99708 5.57916C7.51875 5.42124 7.45608 4.98091 7.86608 4.65841C8.10433 4.47099 8.39733 4.49758 8.65516 4.72991ZM8.21358 4.83674C8.21358 4.88524 8.25108 4.90183 8.29691 4.87349C8.34275 4.84516 8.38025 4.80549 8.38025 4.78524C8.38025 4.76499 8.34275 4.74849 8.29691 4.74849C8.25108 4.74849 8.21358 4.78824 8.21358 4.83674ZM7.88025 5.00341C7.88025 5.05191 7.91775 5.06849 7.96358 5.04016C8.00941 5.01183 8.04691 4.97216 8.04691 4.95191C8.04691 4.93166 8.00941 4.91516 7.96358 4.91516C7.91775 4.91516 7.88025 4.95491 7.88025 5.00341ZM8.42275 4.99983C8.45158 5.04641 8.51 5.06299 8.55266 5.03658C8.66825 4.96516 8.64675 4.91516 8.50033 4.91516C8.42891 4.91516 8.394 4.95324 8.42275 4.99983ZM4.84691 5.06224C5.00225 5.16591 5.13233 5.47933 5.0785 5.61974C4.90816 6.06358 3.96358 5.96558 3.96358 5.50416C3.96358 5.23641 4.21158 4.99841 4.48916 4.99974C4.6355 5.00049 4.7965 5.02858 4.84691 5.06224ZM4.63025 5.16516C4.63025 5.21099 4.67 5.24849 4.7185 5.24849C4.767 5.24849 4.78358 5.21099 4.75525 5.16516C4.72691 5.11933 4.68725 5.08183 4.667 5.08183C4.64675 5.08183 4.63025 5.11933 4.63025 5.16516ZM4.29691 5.24849C4.29691 5.29433 4.33441 5.33183 4.38025 5.33183C4.42608 5.33183 4.46358 5.29433 4.46358 5.24849C4.46358 5.20266 4.42608 5.16516 4.38025 5.16516C4.33441 5.16516 4.29691 5.20266 4.29691 5.24849ZM7.96358 5.33183C7.96358 5.37766 8.00108 5.41516 8.04691 5.41516C8.09275 5.41516 8.13025 5.37766 8.13025 5.33183C8.13025 5.28599 8.09275 5.24849 8.04691 5.24849C8.00108 5.24849 7.96358 5.28599 7.96358 5.33183ZM8.29691 5.33183C8.29691 5.37766 8.33441 5.41516 8.38025 5.41516C8.42608 5.41516 8.46358 5.37766 8.46358 5.33183C8.46358 5.28599 8.42608 5.24849 8.38025 5.24849C8.33441 5.24849 8.29691 5.28599 8.29691 5.33183ZM4.17191 5.49849C4.14358 5.54433 4.16016 5.58183 4.20866 5.58183C4.25716 5.58183 4.29691 5.54433 4.29691 5.49849C4.29691 5.45266 4.28041 5.41516 4.26016 5.41516C4.23991 5.41516 4.20025 5.45266 4.17191 5.49849ZM4.71358 5.49849C4.71358 5.54433 4.75108 5.58183 4.79691 5.58183C4.84275 5.58183 4.88025 5.54433 4.88025 5.49849C4.88025 5.45266 4.84275 5.41516 4.79691 5.41516C4.75108 5.41516 4.71358 5.45266 4.71358 5.49849ZM4.46358 5.66516C4.46358 5.71099 4.50108 5.74849 4.54691 5.74849C4.59275 5.74849 4.63025 5.71099 4.63025 5.66516C4.63025 5.61933 4.59275 5.58183 4.54691 5.58183C4.50108 5.58183 4.46358 5.61933 4.46358 5.66516ZM6.53475 5.87116C6.59225 6.03033 6.77133 6.26933 6.93266 6.40224C7.21891 6.63824 7.22133 6.64508 7.03225 6.68983C6.92575 6.71499 6.54091 6.76233 6.177 6.79499L5.51541 6.85433L5.82625 6.58141C6.03208 6.40074 6.17 6.18574 6.23433 5.94516C6.28775 5.74533 6.35366 5.58183 6.38083 5.58183C6.40791 5.58183 6.47716 5.71208 6.53475 5.87116ZM9.425 7.58783C9.5755 7.87874 9.57633 7.91516 9.43316 7.91516C9.37058 7.91516 9.22408 7.99016 9.1075 8.08183C8.991 8.17349 8.82566 8.24849 8.74025 8.24849C8.64858 8.24849 8.52141 8.36624 8.43016 8.53574C8.34508 8.69366 8.1865 8.90649 8.07783 9.00858C7.74133 9.32466 7.81791 9.41516 8.42191 9.41516C8.8525 9.41516 8.99775 9.44933 9.13025 9.58183C9.32675 9.77833 9.3355 9.89883 9.16925 10.1186C9.049 10.2776 9.04691 10.2774 9.04691 10.108C9.04691 10.0132 8.98133 9.88408 8.90108 9.82116C8.76825 9.71699 8.76566 9.72008 8.87233 9.85591C8.97333 9.98458 8.9695 10.0987 8.84433 10.6892C8.63691 11.6679 8.63683 11.6686 8.69008 11.8075C8.71675 11.8769 8.85475 11.9843 8.99691 12.0462L9.25525 12.1587L8.89816 12.1619C8.69475 12.1637 8.44625 12.103 8.32066 12.0207C8.1995 11.9414 8.01191 11.888 7.90375 11.9022C7.67983 11.9315 7.67708 11.9601 8.01166 10.7989L8.20125 10.1409L7.36991 10.1954C6.86483 10.2285 6.47741 10.2172 6.38283 10.1666C5.966 9.94349 6.16441 8.93349 6.70991 8.50141C7.08366 8.20533 7.80683 7.85533 8.19941 7.78041C8.352 7.75124 8.49825 7.67174 8.52433 7.60374C8.58266 7.45183 9.03858 7.25058 9.1915 7.30916C9.25283 7.33274 9.35791 7.45808 9.425 7.58783ZM6.0485 7.72766C6.04933 7.76199 5.89291 8.36191 5.70091 9.06066C5.50891 9.75941 5.36758 10.3458 5.38683 10.3637C5.40616 10.3817 5.99675 10.3598 6.69941 10.3152C7.402 10.2705 7.99641 10.2536 8.02041 10.2775C8.04433 10.3014 7.92266 10.7735 7.75008 11.3264C7.4985 12.1325 7.40591 12.3318 7.28325 12.3318C7.09241 12.3318 7.089 12.3806 7.34525 11.4401C7.4635 11.0059 7.54791 10.64 7.53275 10.6269C7.49983 10.5982 5.45816 10.7437 5.33858 10.7832C5.29275 10.7982 5.16366 11.1756 5.05166 11.6217C4.86858 12.3511 4.719 12.6151 4.57208 12.4681C4.544 12.4401 4.79508 11.3479 5.13 10.0412C5.65166 8.00549 5.761 7.66516 5.89291 7.66516C5.97758 7.66516 6.04758 7.69333 6.0485 7.72766ZM7.51083 8.82074C7.39316 9.05299 7.29858 9.30983 7.30058 9.39158C7.30258 9.47333 7.35433 9.39991 7.4155 9.22841C7.47666 9.05699 7.5905 8.81933 7.6685 8.70033C7.74641 8.58141 7.791 8.46483 7.7675 8.44133C7.744 8.41783 7.6285 8.58858 7.51083 8.82074ZM7.37141 9.77341C7.40833 9.81008 7.69725 9.82841 8.0135 9.81424L8.58858 9.78849L7.9465 9.74766C7.59341 9.72516 7.33458 9.73683 7.37141 9.77341Z" fill="#DBD6AC"/>
</g>
<defs>
<clipPath id="clip0_223_1804">
<rect width="16" height="16" fill="white"/>
</clipPath>
</defs>
</svg>
