<svg width="192" height="192" viewBox="0 0 192 192" fill="none" xmlns="http://www.w3.org/2000/svg">
<g clip-path="url(#clip0_223_1801)">
<rect width="192" height="192" fill="#B04B17"/>
<path fill-rule="evenodd" clip-rule="evenodd" d="M88.7305 41.5849C82.7515 44.5649 78.9225 49.0479 77.1085 55.1919C75.9255 59.1969 75.8015 59.3059 75.0745 56.9699C70.8565 43.4129 51.1015 40.5969 39.7615 51.9369C29.8105 61.8879 30.6515 75.9199 41.5625 81.9819L46.0625 84.4819L37.8725 85.3259L29.6825 86.1699L29.1645 91.3259C28.2725 100.211 27.5565 152.981 28.3285 153.006C30.7925 153.085 121.293 146.763 122.312 146.44C123.246 146.145 123.562 141.861 123.562 129.513C123.562 120.421 123.9 112.988 124.312 112.995C124.724 113.001 133.612 118.365 144.062 124.914L163.062 136.821L163.339 122.962C163.491 115.34 163.491 102.634 163.339 94.7249L163.062 80.3469L143.562 88.0339L124.062 95.7209L123.779 86.0009L123.495 76.2819L118.279 76.7609L113.062 77.2389L115.278 74.8319C120.971 68.6489 122.035 58.0299 117.778 49.8809C112.438 39.6579 99.8255 36.0569 88.7305 41.5849ZM103.861 56.7589C105.093 57.8699 105.565 59.4949 105.361 61.9239C104.961 66.6649 101.199 68.6769 95.9645 66.9499C90.2245 65.0549 89.4725 59.7709 94.3925 55.9009C97.2515 53.6519 100.767 53.9709 103.861 56.7589ZM98.5625 58.0409C98.5625 58.6229 99.0125 58.8219 99.5625 58.4819C100.112 58.1419 100.562 57.6659 100.562 57.4229C100.562 57.1799 100.112 56.9819 99.5625 56.9819C99.0125 56.9819 98.5625 57.4589 98.5625 58.0409ZM94.5625 60.0409C94.5625 60.6229 95.0125 60.8219 95.5625 60.4819C96.1125 60.1419 96.5625 59.6659 96.5625 59.4229C96.5625 59.1799 96.1125 58.9819 95.5625 58.9819C95.0125 58.9819 94.5625 59.4589 94.5625 60.0409ZM101.072 59.9979C101.418 60.5569 102.119 60.7559 102.631 60.4389C104.018 59.5819 103.76 58.9819 102.003 58.9819C101.146 58.9819 100.727 59.4389 101.072 59.9979ZM58.1625 60.7469C60.0265 61.9909 61.5875 65.7519 60.9415 67.4369C58.8975 72.7629 47.5625 71.5869 47.5625 66.0499C47.5625 62.8369 50.5385 59.9809 53.8695 59.9969C55.6255 60.0059 57.5575 60.3429 58.1625 60.7469ZM55.5625 61.9819C55.5625 62.5319 56.0395 62.9819 56.6215 62.9819C57.2035 62.9819 57.4025 62.5319 57.0625 61.9819C56.7225 61.4319 56.2465 60.9819 56.0035 60.9819C55.7605 60.9819 55.5625 61.4319 55.5625 61.9819ZM51.5625 62.9819C51.5625 63.5319 52.0125 63.9819 52.5625 63.9819C53.1125 63.9819 53.5625 63.5319 53.5625 62.9819C53.5625 62.4319 53.1125 61.9819 52.5625 61.9819C52.0125 61.9819 51.5625 62.4319 51.5625 62.9819ZM95.5625 63.9819C95.5625 64.5319 96.0125 64.9819 96.5625 64.9819C97.1125 64.9819 97.5625 64.5319 97.5625 63.9819C97.5625 63.4319 97.1125 62.9819 96.5625 62.9819C96.0125 62.9819 95.5625 63.4319 95.5625 63.9819ZM99.5625 63.9819C99.5625 64.5319 100.012 64.9819 100.562 64.9819C101.112 64.9819 101.562 64.5319 101.562 63.9819C101.562 63.4319 101.112 62.9819 100.562 62.9819C100.012 62.9819 99.5625 63.4319 99.5625 63.9819ZM50.0625 65.9819C49.7225 66.5319 49.9215 66.9819 50.5035 66.9819C51.0855 66.9819 51.5625 66.5319 51.5625 65.9819C51.5625 65.4319 51.3645 64.9819 51.1215 64.9819C50.8785 64.9819 50.4025 65.4319 50.0625 65.9819ZM56.5625 65.9819C56.5625 66.5319 57.0125 66.9819 57.5625 66.9819C58.1125 66.9819 58.5625 66.5319 58.5625 65.9819C58.5625 65.4319 58.1125 64.9819 57.5625 64.9819C57.0125 64.9819 56.5625 65.4319 56.5625 65.9819ZM53.5625 67.9819C53.5625 68.5319 54.0125 68.9819 54.5625 68.9819C55.1125 68.9819 55.5625 68.5319 55.5625 67.9819C55.5625 67.4319 55.1125 66.9819 54.5625 66.9819C54.0125 66.9819 53.5625 67.4319 53.5625 67.9819ZM78.4165 70.4539C79.1065 72.3639 81.2555 75.2319 83.1915 76.8269C86.6265 79.6589 86.6555 79.7409 84.3865 80.2779C83.1085 80.5799 78.4905 81.1479 74.1235 81.5399L66.1845 82.2519L69.9145 78.9769C72.3845 76.8089 74.0395 74.2289 74.8115 71.3419C75.4525 68.9439 76.2435 66.9819 76.5695 66.9819C76.8945 66.9819 77.7255 68.5449 78.4165 70.4539ZM113.099 91.0539C114.905 94.5449 114.915 94.9819 113.197 94.9819C112.446 94.9819 110.688 95.8819 109.289 96.9819C107.891 98.0819 105.907 98.9819 104.882 98.9819C103.782 98.9819 102.256 100.395 101.161 102.429C100.14 104.324 98.2375 106.878 96.9335 108.103C92.8955 111.896 93.8145 112.982 101.062 112.982C106.229 112.982 107.972 113.392 109.562 114.982C111.92 117.34 112.025 118.786 110.03 121.423C108.587 123.331 108.562 123.329 108.562 121.296C108.562 120.158 107.775 118.609 106.812 117.854C105.218 116.604 105.187 116.641 106.467 118.271C107.679 119.815 107.633 121.185 106.131 128.271C103.642 140.015 103.641 140.023 104.28 141.69C104.6 142.523 106.256 143.812 107.962 144.554L111.062 145.904L106.777 145.943C104.336 145.965 101.354 145.236 99.8475 144.249C98.3935 143.297 96.1425 142.656 94.8445 142.826C92.1575 143.178 92.1245 143.521 96.1395 129.587L98.4145 121.691L88.4385 122.345C82.3775 122.742 77.7285 122.606 76.5935 121.999C71.5915 119.322 73.9725 107.202 80.5185 102.017C85.0035 98.4639 93.6815 94.2639 98.3925 93.3649C100.223 93.0149 101.978 92.0609 102.291 91.2449C102.991 89.4219 108.462 87.0069 110.297 87.7099C111.033 87.9929 112.294 89.4969 113.099 91.0539ZM72.5815 92.7319C72.5915 93.1439 70.7145 100.343 68.4105 108.728C66.1065 117.113 64.4105 124.15 64.6415 124.365C64.8735 124.58 71.9605 124.318 80.3925 123.782C88.8235 123.246 95.9565 123.043 96.2445 123.33C96.5315 123.617 95.0715 129.282 93.0005 135.917C89.9815 145.59 88.8705 147.982 87.3985 147.982C85.1085 147.982 85.0675 148.567 88.1425 137.281C89.5615 132.071 90.5745 127.68 90.3925 127.523C89.9975 127.179 65.4975 128.924 64.0625 129.398C63.5125 129.579 61.9635 134.107 60.6195 139.46C58.4225 148.213 56.6275 151.381 54.8645 149.617C54.5275 149.281 57.5405 136.175 61.5595 120.494C67.8195 96.0659 69.1315 91.9819 70.7145 91.9819C71.7305 91.9819 72.5705 92.3199 72.5815 92.7319ZM90.1295 105.849C88.7175 108.636 87.5825 111.718 87.6065 112.699C87.6305 113.68 88.2515 112.799 88.9855 110.741C89.7195 108.684 91.0855 105.832 92.0215 104.404C92.9565 102.977 93.4915 101.578 93.2095 101.296C92.9275 101.014 91.5415 103.063 90.1295 105.849ZM88.4565 117.281C88.8995 117.721 92.3665 117.941 96.1615 117.771L103.062 117.462L95.3575 116.972C91.1205 116.702 88.0145 116.842 88.4565 117.281Z" fill="#DBD6AC"/>
</g>
<defs>
<clipPath id="clip0_223_1801">
<rect width="192" height="192" fill="white"/>
</clipPath>
</defs>
</svg>
