<svg width="89" height="64" viewBox="0 0 89 64" fill="none" xmlns="http://www.w3.org/2000/svg">
<path fill-rule="evenodd" clip-rule="evenodd" d="M5.12788 0.105047C4.07298 0.307188 2.71454 1.04518 1.91728 1.84953C-1.48185 5.27865 -0.185544 10.8083 4.41823 12.5181L5.12788 12.7816L43.9893 12.8178C71.7476 12.8437 83.0861 12.8141 83.6748 12.7141C84.882 12.5091 86.2188 11.8166 87.0756 10.9522C90.4747 7.52313 89.1784 1.99348 84.5746 0.283708L83.865 0.0201849L44.8134 0.00193543C20.5574 -0.00942223 5.52169 0.0297551 5.12788 0.105047ZM4.42761 25.8973C1.30919 26.9674 -0.523315 30.1216 0.132955 33.2893C0.589782 35.4942 2.36409 37.4416 4.52981 38.1149C5.33531 38.3653 5.79999 38.3682 44.4964 38.3682C83.1929 38.3682 83.6575 38.3653 84.463 38.1149C87.0971 37.296 89 34.7261 89 31.9875C89 29.2489 87.0971 26.679 84.463 25.8601C83.6574 25.6098 83.1975 25.6068 44.4514 25.6101L5.25467 25.6135L4.42761 25.8973ZM5.12788 51.2783C4.07298 51.4805 2.71454 52.2185 1.91728 53.0228C-1.48185 56.4519 -0.185544 61.9816 4.41823 63.6913L5.12788 63.9549L43.9893 63.9911C71.7476 64.017 83.0861 63.9874 83.6748 63.8874C84.882 63.6824 86.2188 62.9898 87.0756 62.1255C90.4747 58.6964 89.1784 53.1668 84.5746 51.457L83.865 51.1935L44.8134 51.1752C20.5574 51.1638 5.52169 51.203 5.12788 51.2783Z" fill="black"/>
</svg>
