<?xml version="1.0" encoding="UTF-8"?><svg id="Layer_2" xmlns="http://www.w3.org/2000/svg" viewBox="0 0 11678.04 3299.94"><defs><style>.cls-1{fill:#f7dbc1;opacity:0.5;}</style></defs><g id="Layer_1-2"><path class="cls-1" d="M10231.59,1763.67c-33-.23-58.37,2.7-66.26,12.61-6.82,8.61,2.15,14.25,34.39,17.99,37.05,4.29,73.03,9.44,17.37,21.99-33.31,7.52-14.56,17.71,19.68,20.76,37.31,3.33,67.75,8.7,99.06,14.78,29.06,5.64,62.31,8.03,90.6-1.26,11.12-3.67,25.16-5.48,38.69-2.78,54.22,10.81,115.87,20.44,126.58,41.38,4.66,9.15,21.67,16.67,29.21,25.29,10.66,12.26,21.01,24.19-11.02,35.57-26.55,9.44-4.05,13.71,25.98,13.25,194.17-2.94,253.42,38.95,315.93,77.6,19.73,12.18,41.26,20.45,82.4,24.12,101.11,9,160.15,26.92,164.5,57.69,1.9,13.33,38.54,20.41,65.6,29.38,18.6,6.19,51.25,12.1,11.99,22.02-71.33,17.99-116.43,22.26-149.69,12.61-7.79-2.25-15.48-5.15-8.25-7.78,35.57-13.03,4.2-26.47,4.41-39.66,.15-14.35-28.14-18.54-69.85-12.35-49.2,7.31-69.03,.67-84.76-10.99-8.46-6.29-8.76-12.75-9.48-19.31-2-17.87-20.65-33.6-74.87-44.5-17.22-3.46-34.7-7.58-57.19-4.55-20.6,2.78-24.86,9.44-18.24,13.96,39.97,27.28,13.68,62.96,126.84,81.02,16.24,2.58,24.75,6.78,22.86,11.86-6,16.15,22.96,19.97,74.77,20.57,34.49,.39,72.41,4.74,56.47,19.45-5.84,5.38,3.79,10.93,21.99,10.83,66.57-.39,109,16.29,174.44,18.03,38.43,1.01,84.4,7.19,45.81,24.5-18.29,8.2,.77,14.68,36.13,15.68,39,1.12,64.57,5.28,74.46,17.67,12.61,15.8,69.24,19.06,112.54,22.58,41.15,3.33,79.59-5.83,109.98-13.9,1.54-.41,2.92-.81,4.15-1.23,13.12-4.32,11.48-9.04,0-13.7-2.92-1.2-6.56-2.41-10.76-3.59-41-11.58-39.82-14.35,10.76-19.41v-301.55c-44.89-6.62-93.32-15.84-145.44-27.9-40.84-9.2-83.43-17.65-119.3-28.71-51.35-15.84-125.81-17.67-193.97-23.02-69.49-5.45-130.53-13.78-178.18-30.37-60.98-21.21-157.99-22.22-242.19-29.47-31.06-2.67-64.26-5.35-96.55-6.67-41-1.68-66.37-6.15-75.84-17.52-.98-1.13-2.56-2.93-5.18-3.15-62.47-5.04-124.99-10.07-187.97-14.51-4.15-.29-16.19,3.9-18.14,6.41-15.27,19.87-49.19,11.22-78.82,3.9-28.6-7.07-53.4-15.31-95.63-15.61Zm583.96-947.61c-13.37,3.68-28.65,4.42-44.59,5.8-17.42,1.52-40.59,2.83-30.44,10.47,9.53,7.17,30.55,7.52,52.27,4.84,13.43-1.64,25.27-4.25,38.38-6.09,23.88-3.36,150.72,10.22,158.3,16.8,8.82,7.67-62.16,30.71-93.73,30.05-14.45-.3-28.54-1.91-42.99-2.55-10.66-.48-21.47,.1-27.16,3.1-6.56,3.46-5.07,7.13,3.84,9.97,6.77,2.15,15.99,4.84,24.91,5.1,87.32,2.61,141.95,22.96,217.85,31.66,11.58,1.33,24.39,2.52,33.46,4.8,24.91,6.23,47.05,16.86,31.83,23.25-20.91,8.8-51.91-.04-74.51-4.71-58.01-11.99-121.56-18.49-193.97-16.71-34.59,.85-74.77,2.61-71.9,14.96,3.18,13.55,0,29.66,55.86,37.06,26.9,3.57,41.15-3.81,57.65-8.02,18.86-4.83,35.72-11.44,60.11-1.61,24.19,9.78,83.79,15.28,47.71,32.09-10.4,4.86-24.6,3.45-37.66,.77-13.43-2.75-24.39-6.75-42.79-7.02-18.6-.28-33.62,1.54-38.69,7-5.17,5.55,2,9.61,23.47,10.07,22.29,.48,39.77,3.17,55.81,7.32,11.68,3.01,32.64,5.09,39,1.33,19.88-11.77,66.78-11.22,94.5-18.51,38.18-10.04,74.1-8.96,113.77-1.55,28.24,5.29,57.04,8.48,60.63-5.84,3.23-12.81,25.27-9.88,49.25-5.32,15.73,2.97,34.64,6.7,35.46,11.99,1.9,11.96,27.88,19.12,53.35,27.15,26.14,8.23,40.48,17.1-6.92,24.65-32.23,5.12-26.6,10.83-4.25,18.57,35.05,12.15,92.5,13.62,130.32,24.35,16.91,4.8,30.85,8.45,34.64,15.76,7.23,13.93,49.09,18.8,90.5,11.58v-204.31c-20.09-2.78-40.13-5.58-60.26-8.15-31.47-4.01-62.93-5.74-97.32-5.93-81.84-.44-133.5-12.65-148.25-35.4-7.53-11.58-29.26-17.67-68.31-20.32-22.04-1.49-49.15,.17-65.39-5.26-59.29-19.87-150.87-24.28-222.97-38-68.83-13.12-131.81-11.45-190.74,4.81Zm841.98,283.93c1.13,4.52-11.58,5.9-25.16,5.86-11.58-.04-21.68-1.97-22.14-5.17-.51-3.77,11.79-4.23,22.55-4.42,10.09,.38,23.73-.22,24.75,3.74ZM0,310.6c65.54,14.48,159.58,20.38,174.95,49.69,10.86,20.7,75.79,31.24,125.96,42.67,41.72,9.51,84.97,18.79,126.48,28.58,84.91,20.06,175.26,37.87,271.91,53.24,30.9,4.91,53.91,13.39,77.33,20.48,69.7,21.1,157.89,35.29,236.5,52.8,64.16,14.26,146.11,22.16,209.96,37.76,101.98,24.93,228.56,42.99,279.4,81.95,9.68,7.41,36.85,9,60.47,11.64,48.53,5.42,89.32,13.78,103.31,28.76,7.43,7.99,27.67,9.81,49.51,11.84,43.3,4.03,70.92,12.31,84.56,24.44,15.32,13.61,30.18,27.06,69.08,37.42,18.19,4.84,16.76,12.73,8.2,18.64-18.14,12.51,1.69,20.38,33.06,27.73,85.17,19.99,172.09,39.37,265.3,56.27,83.17,15.07,144.31,34.77,188.74,59.95,43.56,24.7,90.55,49.67,191.92,60.27,6.71,.7,15.78,3.19,15.84,4.86,.77,29.58,98.6,38.05,153.79,55.25,73.08,22.76,161.02,40.45,230.51,65.82,62.83,22.9,134.93,49.24,246.96,61.04,95.73,10.1,152.72,31.66,155.64,62.79,2.05,21.5,63.39,34.21,137.13,29.63,51.15-3.17,91.27-2.86,104.9,15.26,6.41,8.51,30.9,13.25,63.24,15.22,78.56,4.8,87.07,8.19,77.08,29.66-3.08,6.67,.57,13.19,20.09,15.62,67.54,8.41,110.03,26.26,180.34,34.63,68.57,8.16,112.43,27.54,148.15,45.86,33.57,17.22,79.12,29.86,131.65,42.19,110.28,25.89,230.25,48.86,321.52,80.81,7.38,2.58,10.56,6.28,13.68,9.59,2.66,2.84-1.54,7.52,4,8.6,56.78,10.87,85.43,29.42,136.37,41.02,71.49,16.28,149.95,28.12,202.37,52.3,54.99,25.32,144.93,44.12,225.02,64.2,53.25,13.36,103.88,27.19,130.47,46.53,10.56,7.71,35.82,9.31,60.78,10.94,43.1,2.84,76.46,10.99,80.3,22.51,7.99,23.94,70.87,37.11,118.28,53.02,59.14,19.87,136.78,35.06,184.34,58.18,14.61,7.12,43.66,11.03,72.51,13.34,119.71,9.62,220.77,28.35,312.19,51.5,31.77,8.06,70.46,12.93,103.47,19.93,82.3,17.47,163.32,35.67,238.3,55.54,41.46,10.99,49.4,29.97,55.76,43.96,11.94,26.13,76.66,30.79,137.19,34.58,139.59,8.75,253.06,26.19,326.8,61.85,8.09,3.91,20.96,8.58,34.95,9.75,76.1,6.36,107.77,25.35,150.31,41.11,16.29,6.04,34.44,11.06,53.6,16.31,106.8,29.19,209.09,59.7,312.6,89.82,2.41,.7,1.59,2.28,2.3,3.45,4.2,1.2,8.46,2.41,12.66,3.61,25.42,.33,40.02,4.74,50.53,10.68,4.2,4.74,8.41,9.48,12.61,14.2,82.97-10,137.34,7.7,200.37,16.74,11.69,1.7,12.81,5.78,13.27,9.49,2.77,20.76,58.27,38.71,130.88,41.44,96.09,3.61,164.6,18.18,214.62,40.95,19.83,9.03,46.33,16.04,75.43,23.16,46.79,11.44,104.75,19.13,140.42,34.84,29.16,12.84,80.61,20.87,132.42,21.81,87.37,1.58,119.61,18.5,153.07,36.47l.41,.1c51.2,3.44,93.68,11.38,122.28,23.42,95.68,40.34,220.51,69.59,385.53,84.33,115.51,10.31,214.21,29.38,313.17,48.19,53.35,10.13,107.62,18.97,168.6,25.51,93.53,10.03,182.9,22.58,269.04,37.82,62.88,11.1,121.56,22.44,174.09,37.08,36.64,10.23,86.3,13.61,134.68,18.1,139.9,13,296.41,10.61,423.25,35.22,114.64,22.23,243.73,37.61,348.68,65.18,43.76,11.49,102.8,30.19,188.23,21.65,19.73-1.97,42.02,.03,60.47,3.31,113.36,20.13,221.13,41.77,298.51,73.92,28.7,11.93,65.49,22.73,118.48,28.26,10.2,1.07,19.73,2.33,28.03,3.87v-125.94c-7.99-2.19-13.53-4.91-14.81-8.9-15.68-2.58-22.7-6.45-25.67-11.52-32.59-55.66-146.51-66.11-305.48-73.28-90.71-4.09-172.39-11.65-249.11-25.34-82.92-14.78-167.06-28.42-243.06-46.77-57.81-13.96-146.21-15.35-214.31-27.64-77.54-13.99-161.48-25.45-223.33-45.22-33.16-10.6-87.22-11.91-116.69-23.39-53.96-5.68-96.19-17.35-134.78-27.79-80.3-21.74-180.59-32.79-272.27-48.43-8.46-1.43-14.35-4.07-21.42-6.15-22.14-.81-25.78-5.33-26.29-10.48-103.67-8.35-175.21-27.57-226.51-53.6-4.25-1.19-8.51-2.38-12.76-3.57-63.85-2.93-116.54-12-165.58-23.41-14.3-3.33-31-7.04-48.33-7.94-122.02-6.35-204.63-29.57-290.46-52.05-55.35-14.47-110.54-28.68-161.38-44.58-32.13-10.06-51.04-19.94-39.05-31.54,18.7-18.03-19.48-28.51-48.63-41.47-102.54-45.53-265.71-70.95-414.33-101.05-64.06-12.96-100.9-32.97-166.35-45.53-55.09-10.57-103.62-23.94-153.69-36.53-34.13-8.6-67.29-17.03-85.94-29.97-25.88-17.99-93.63-26.87-130.53-42.86-4.3-1.2-8.61-2.42-12.91-3.62-70.11-9.36-122.27-24.92-161.58-42.82-45.05-20.51-113.36-34.58-165.63-52.95-13.84-4.87-30.59-9.44-45.86-14.22-39-12.18-85.94-21.48-133.34-31.21-121.56-24.94-268.38-41.71-351.81-80.12-12.81-3.55-25.67-7.1-38.54-10.64-13.94-.57-22.55-2.77-25.78-6.65-8.2-.17-16.35-.36-24.49-.54-146.62-9.12-233.99-42.34-341.87-67.21-19.32-1.19-36.49-3.51-50.27-7.62-21.93-.84-34.39-4.39-37.56-10.57-16.04-2.74-28.14-7.48-49.14-7.67-86.2,1.12-163.94-9.04-244.96-14.78-5.64-.41-12.76-1.54-14.96-2.88-44.79-27.26-140-39.53-210.78-58.91-71.9-19.68-155.07-37.45-210.06-62.56-18.5-8.42-56.01-14.31-88.81-19.23-73.38-11.03-115.35-26.39-131.39-50.4-11.99-18-59.19-33.67-47.05-54.05,4.97-8.33,1.23-16.22,38.02-19.97,30.7-3.12,31.06-10.45,15.32-17.6-11.02-5.01-20.96-10.96-37.1-14.23-88.4-17.97-126.17-44.09-143.85-72.62-13.37-21.58-72.46-30.11-126.02-40.25-19.06-3.61-38.18-7-54.88-11.48-133.19-35.83-262.33-73.02-401.93-106.75-55.76-13.48-118.48-25.83-181.77-37.06-37.41-6.64-63.24-14.44-80.51-26.09-24.86-16.73-63.24-31.5-81.58-49.5-11.68-11.44-55.14-18.36-93.27-22.74-67.13-7.73-101.78-20.12-128.58-39.72-37.36-27.32-116.59-47.8-205.91-62.79-68.41-11.48-138.93-20.63-188.94-39.82-49.51-19-113.72-34.93-172.5-51.67-98.85-28.15-159.84-65.57-280.11-88.36-42.18-7.99-69.44-20.58-72.62-35.99h-.1c-18.4,.03-34.74-.77-37.46-7.23-8.3-1.25-16.55-2.49-24.8-3.74-23.88-.3-36.39-3.9-38.28-10.57-100.03-23.09-206.27-43.51-320.6-60.62-51.76-7.74-103.72-15.52-152.82-24.47-33.62-6.13-67.9-8.8-106.69-8.02-43.1-5.2-86.2-10.41-101.57-24.71-55.91-13.19-133.91-19-165.17-40.57-7.33-5.07-29.41-6.03-48.94-6.07-32.28-.7-48.27-7.28-63.6-14.12-48.58-11.93-94.81-24.77-146.41-35.54-48.02-10.03-81.17-23.39-118.84-35.83-85.58-4.06-120.48-28.02-189.97-38.96-33.51-5.28-64.72-13.54-100.49-17.41-118.94-12.86-216-35.05-314.5-56.56-45.92-10.02-80.41-22.15-93.58-40.29-13.12-18.03-62.52-31.37-124.33-39.8-77.28-10.55-154.46-21.38-204.47-42.48-4.51-1.93-6.41-4.35-9.53-6.54-8.04-.2-16.09-.42-24.14-.62-121.15-17.34-231.12-38.7-325.67-66.76-39-11.58-103.11-11.67-153.64-18.6-33.92-4.64-72.21-8.25-96.45-15.86-50.53-15.89-113-23.99-184.13-27.99-53.81-3.03-102.13-9.45-148.82-17.2v160.64Zm3737.98,795.87c52.94,18.54,122.58,31.02,193.1,43.27,10.45,1.81,19.78,5.06,12.96,9.03-7.94,4.64-27.31,8.48-40.33,6.55-77.13-11.42-165.58-17.58-224.72-37.64-11.33-3.84-21.27-7.8-10.51-12.71,11.07-5.06,24.96-9.51,50.02-11.26,5.33,.71,14.91,1.17,19.47,2.77ZM475.52,11.83c32.9,4.12,54.42,10.02,56.88,21.29,1.69,7.7,18.19,12.7,51.66,11.46,35.51-1.3,46.17,7.04,53.66,14.38,5.59,5.48-5.48,10.67-22.65,13.58-16.4,2.77-27.42-1.09-37.05-4.19-13.94-4.51-28.7-10.84-50.68-4.94-19.63,5.26-6.61,12.29,11.43,15.18,55.91,8.9,94.75,22.55,138.67,35.12,40.59,11.6,94.34,10.03,131.65-1.68,28.13-8.83,62.21-10.48,97.37-7.58,42.74,3.54,77.13,2.96,108.08-7.1,13.17-4.26,32.69-8.99,54.99-5.49,22.29,3.49,15.58,10.18,13.38,16.12-5.12,13.67,54.32,31.25,102.7,31.25,26.65,0,34.85-3.96,42.28-10.39,11.02-9.57,34.75-11.45,70.06-8.48,74.15,6.22,109.98,22.71,144.21,39.95,12.66,6.35-9.17,8.15-21.06,10.9-63.96,14.78-60.83,23.96,12.3,35,87.48,13.2,91.07,15.09,63.03,41.08-8.97,8.31,5.02,13.33,27.57,15.54,53.81,5.26,78.3,18.02,97.73,30.89,14.45,9.55,34.44,16.38,65.34,20.48,48.38,6.44,93.06,13.42,115.15,28.45,4.15,2.83,17.99,5.84,28.8,6.35,80.92,3.83,114.69,22.87,155.02,38.98,35.93,14.31,70.46,27.68,137.55,30.09,106.9,3.83,149.74,30.51,213.39,49.19,57.29,16.83,93.53,21.25,166.91,11.42,49.97-6.68,62.01,6.99,63.85,12.41,7.28,21.57,58.01,32.44,114.79,41.54,85.74,13.76,119.46,35.89,131.55,61.46,4.31,9.03,16.5,15.18,38.54,21.32,64.16,17.91,126.48,36.29,196.48,52.5,35.61,8.23,63.85,18.47,87.58,30.06,27.21,13.26,72.72,21.13,118.07,30.08,54.93,10.81,112.59,22.03,161.94,36.64,52.63,15.58,72.82,41.67,170.19,45.85,38.54,1.65,41,18.28,69.18,26.45,34.74,10.09,60.68,23.12,118.89,23.73,19.58,.2,29.98,4.57,37.31,8.67,35.92,20.03,88.66,34.86,154.1,47.88,64.52,12.83,111.51,31.83,168.24,47.6,54.99,15.29,128.88,24.16,172.96,43.09,11.07,4.75,34.85,9.02,59.29,9.23,37,.35,49.51,7.42,69.8,14.87,37.46,13.78,93.53,22.9,133.19,36.73,22.39,7.8,48.89,14.51,64.93,23.86,17.78,10.35,43.81,18.7,84.35,22.76,26.49,2.65,48.53,7.86,63.29,14.28,40.79,17.71,91.78,30.71,168.55,33.93,23.63,1,36.54,6.03,43.25,11.8,16.5,14.16,57.65,23.05,98.24,28.84,61.8,8.8,96.5,23.87,140.83,37.09,105.41,31.38,196.07,66.35,324.85,92.04,99.57,19.87,150.46,53.48,210.37,83.21,21.99,10.91,32.28,18.8,81.23,11.2,29.88-4.65,54.88,1.01,81.43,4.78,85.43,12.12,134.68,34.64,200.17,52.57,90.3,24.71,173.06,51.86,286.47,70.24,67.19,10.88,134.06,23.84,184.28,43.7,72.98,28.86,151.02,56.19,207.75,88.42,40.84,23.22,121.71,38.6,182.7,57.99,8.2,2.61,22.75,4.9,24.14,7.74,11.94,24.51,87.73,40.31,107.52,63.73,3.02,3.57,15.17,7.74,26.95,9.31,83.94,11.16,127.09,32.28,177.36,52.83,59.34,24.26,149.95,39.05,249.21,48.19,41.25,3.81,73.95,9.94,105.77,18.2,76.61,19.92,158.61,38.16,235.27,58.05,42.89,11.12,81.23,23.76,118.48,36.44,37.26,12.7,63.5,27.25,141.34,21.07,47.51-3.75,85.79,10.13,117.76,18.02,68.31,16.8,168.91,27.02,191.81,54.15,16.3,19.32,55.04,32.45,94.19,46.82,34.44,12.61,83.22,20.74,123.71,31.42,66.26,17.49,126.02,36.19,183.77,55.77,41.51,14.07,89.68,26.55,134.06,39.96,28.8,8.71,50.38,17.91,56.42,30.81,6.61,14.06,35.46,25.34,79.48,34.31,118.84,24.22,238.76,47.89,346.07,76.7,48.22,12.94,105.11,26.81,175.01,31.74,29.06,2.04,37.31,11.7,56.22,12.64,71.08,3.52,106.54,17.99,148.87,31.71,17.17,5.55,52.84,6.64,80.41,9.49,70.72,7.33,92.76,17.94,78.61,38.28-16.24,23.32-4.35,27.5,81.79,33.69,52.12,3.74,81.28,16.52,110.44,27.83,28.54,11.04,58.47,20.1,108.9,21.36,25.27,.62,41.36,5.06,58.52,9.57,135.39,35.44,285.03,65.41,441.39,93,65.34,11.51,123.5,26.23,188.28,38.05,119.87,21.86,242.45,42.51,363.34,63.92,59.19,10.47,127.45,6.57,190.69,8.84,27.06,.99,54.42,1.78,80.51,3.29v-189.98c-23.32,2.35-29.26-4.73-40.74-8.8-7.99-.04-15.94-.09-23.93-.13-51.71-4.29-85.99-16.18-129.6-24.03-133.65-24.13-236.66-58.73-360.42-86.15-72.46-16.06-139.44-35.03-234.66-42.13-67.85-5.06-118.48-19.78-173.83-31.44-17.83-3.75-26.13-9.19-24.65-15.61h0c-69.9-4.2-125.96-15.19-176.6-28.82-8.05-.1-16.04-.2-24.09-.29-38.54-.62-65.8-8.75-90.55-14.64-114.84-27.29-257.21-43.15-367.03-72.44-39.05-10.42-85.99-18.5-130.12-27.35-13.58-2.72-30.24-4.33-32.39-9.93-8.15-1.29-16.35-2.59-24.5-3.88-80.61-8.93-151.02-24.28-213.9-39.13-95.06-22.45-199.61-41.25-292.41-64.31-11.02-2.72-26.39-4.71-33.11-8.1-64.26-32.47-166.91-54.85-265.87-77.27-77.59-17.58-148.46-37.99-236.97-51.75-22.29-3.46-41.41-8.31-43.35-16.42-16.91-4.74-33.87-9.49-50.84-14.23-77.74-23.79-174.65-42.11-244.6-68.05-15.94-5.9-33.93-10.06-56.06-13.75-108.59-18.09-187.72-42.08-237.53-76.47-47.66-32.92-148.31-54.51-262.38-70.63-70.26-9.93-140.21-19.84-185.1-40.9-39.26-18.42-86.45-38.66-138.67-51.31-90.4-21.93-168.14-49.74-289.19-62.49-61.04-6.42-121.45-17.57-168.4-33.68-50.02-17.15-116.59-30.41-175.62-45.48-20.65-5.26-35.36-11.16-37.36-19.77-2.2-9.25-29.16-14.18-55.3-18.13-123.09-18.65-213.39-49.89-334.38-69.34-15.12-2.42-23.98-6.61-25.32-11.75-8.2-1.28-16.35-2.57-24.55-3.84-23.83-.87-45.92-2.39-50.68-10.58-8.51-2.36-17.07-4.72-25.57-7.09-109-34.38-273.5-49.79-373.28-87.69-21.37-8.12-59.39-12.83-90.65-18.74-59.34-11.26-115.46-22.64-150.46-41.74-18.76-10.25-69.85-13.03-92.5-25.35-40.49-22.03-41.31-46.96-74.57-69.3-4.51-3.06-4.56-7.42-.67-10.58,64.47-51.77-73.38-78.95-168.45-111.33-5.28-1.8-13.89-2.99-17.63-4.97-56.27-29.67-156.35-32.68-258.54-33.48-38.95-.3-71.49-2.15-104.75-9.03-34.85-7.2-72.52-13.91-115.77-17.73-131.5-11.57-203.04-42.37-288.98-69.73-41.82-13.34-68.36-38.66-164.35-33.16-17.73,1.01-29.36-4.03-41.2-7.33-32.95-9.19-64.62-18.76-98.49-27.66-48.28-12.67-77.54-12.55-118.33,1.94-23.21,8.23-41.87,3.49-58.88,.12-53.2-10.55-105.16-21.61-156.3-32.95-41.26-9.15-82.56-17.38-133.65-22.39-46.68-4.57-95.78-11.28-93.01-29.52,.72-4.61-3.28-10.1,17.27-12.2,19.06-1.97,35.61-.55,51.71,3.48,66.98,16.8,135.7,33.08,214.62,45.32,30.39,4.71,49.81,12.57,75.44,18.6,12.04,2.83,25.21,7.35,43.97,3.46,13.32-2.77,18.04-7.9,11.63-11.28-33.77-17.78-24.54-39.8-69.34-56.21-11.89-4.36-14.61-7.75-10.2-12.83,16.5-19.06-1.23-37.76-11.02-56.44-4.2-7.94-25.32-13.52-45.61-18.81-59.09-15.42-127.5-28.13-172.6-47.66-10.45-4.51-28.9-4.44-45.61-4.72-100.75-1.8-169.52-18.52-229.69-39.25-6.61-2.29-10.97-6.46-18.65-6.94-73.08-4.61-82.25-22.63-91.83-38.06-14.61-23.51-73.59-36.15-135.14-46.38-59.55-9.91-99.47-24.13-135.24-38.95-76.82-31.79-179.52-52.75-307.07-63.62-101.83-8.67-165.83-28.08-215.13-52.99-4.05-2.04-4.71-5.19-10.61-6.33-99.93-19.57-112.28-56.72-195.46-78.85-76.36-20.31-118.64-42.6-126.58-72.5-5.28-19.9-64.11-32.66-121.46-43.32-118.12-21.96-212.52-49.67-267.1-87.17-7.58-4.42-19.83-6.86-37.51-6.96-18.55,4.61-31.16,3.1-39.36-3.03-12.14-.16-24.29-.3-36.44-.46-30.24,4.97-32.54-1.8-38.02-7.23l-.87-.23c-83.07-9.8-138.57-27.35-175.62-50.08H441.9c1.54,6.13,15.22,9.54,33.62,11.83Zm2030.44,337.36c45.04,16.41,91.94,33.97,158.61,41.77,51.61,6.03,88.76,14.86,125.86,25.15,7.38,2.04,15.37,4.35,19.01,6.97,7.74,5.61,12.5,11.96-2.97,16.84-14.04,4.44-31.67,.46-46.79-.84-30.18-2.62-56.78-7.19-83.28-12.2-38.02-7.2-76.87-15.91-119.71-18.84-67.34-4.61-115.46-12.87-137.08-31.93-6.05-5.35-23.11-8.2-37.36-11.73-18.76-4.64-40.64-9.28-26.8-17.93,13.02-8.12,37.77-10.54,63.55-10.81,40.79-.22,65.65,5.8,86.97,13.55ZM4404.24,8.77c-55.91,20.52-8.87,34.93,37.97,48.34,24.19,6.91,18.24,9.96-4.76,14.83-16.3,3.44-36.03,7.84-26.08,14.73,9.68,6.71,33.72,8.52,57.04,9.47,16.55,.67,34.33-.16,50.02,1.16,23.01,1.94,52.79,1.78,61.19,10.38,8.61,8.74-18.96,10.41-36.44,14.35-41.66,9.38-41.56,25.54-1.59,36.63,29.47,8.16,60.98,17.2,25.52,28.83-34.44,11.29-72.21,11-113.61-.1-22.96-6.16-59.09-8.44-89.63-12.26-43.15-5.39-92.5-7.52-113.46-22.68-11.02-7.99-43-6.44-67.44-5.93-59.7,1.25-110.74-3.44-156.76-14.44-67.65-16.18-151.74-24.83-225.85-37.92-69.03-12.19-132.98-22.6-220.87-20.45-52.68,1.28-103.88-10-164.09-7.81-27.37,1-51.35-1.44-67.65,7.26-12.55,6.7-30.13,5.64-43.61-.17-29.98-12.99-66.06-13.8-113.46-7.04-33.93,4.84-70.36,2.13-100.34-4.72-16.5-3.78-33.16-7.02-53.91-8.81-29.88-2.61-54.99-3.88-56.78,8.39-1.64,11.18-20.65,11.7-48.94,6.17-1.74-.33-3.54-.8-5.43-.87-30.03-1.35-69.7-12.73-83.17-6.03-16.24,8.06,24.29,18.99,50.68,23.23,72.77,11.68,137.44,27.15,223.43,33.26,47.87,3.41,87.94,15.51,141.29,19.6,20.91,1.59,24.08,13.02,25.37,20.86,4.05,.06,8.1,.12,12.15,.16,29.88,1.04,46.53,5.86,50.68,14.23,8.2,1.26,16.45,2.51,24.65,3.77,22.6,1.16,46.12,1.57,67.64,3.65,36.28,3.51,65.49,3.13,85.17-7.61,9.79-5.32,30.29-9.23,46.74-5.99,67.29,13.26,156.66,13.96,216.52,31.64,18.5,5.48,33.31,10.9,36.49,17.99,7.58,16.8,48.63,25.83,90.04,36.08,35.31,8.74,61.29,20.6,89.83,31.39,75.33,28.52,124.48,32,225.69,11.35,56.78-11.58,118.74-10.09,195.15,6.06,43.56,9.19,80.61,20.83,123.71,30.21,99.01,21.52,214.57,33.37,329.93,46.05,53.91,5.93,111.15,13.47,163.48,15.54,97.42,3.84,170.76,21.06,259.21,28.12,44.13,3.51,76.61,8.06,98.96,19.09,8.56,4.23,23.16,6.74,41.26,7.35,81.89,2.75,123.25,19.22,151.02,38.29,20.04,13.77,49.66,24.92,99.06,26.97,82.25,3.44,125.86,24.34,198.27,31.51,5.18,.51,10.5,2.36,12.35,3.91,30.65,26.12,92.55,47.8,129.24,73.04,4.97,3.41,7.38,7.62-5.33,9.54-6.92,1.04-23.01,.16-28.65-1.54-45.2-13.67-116.53-8.74-166.45-19.09-13.84-2.86-34.23-2.59-47.4,.96-38.08,10.31-78.46,9.67-121.66,3.36-5.53-.81-14.14-2.23-17.42-1.64-70.62,12.75-146.82-3.29-218.46,3.45-11.53,1.09-28.08,2.75-35.98,1.33-81.12-14.71-149.44,2.64-222.05,7.07-38.28,2.35-29.26,13.28-27.21,21.21,3.18,12.04,31.77,21.42,69.8,22.22,85.28,1.78,115.3,18.71,145.49,36.57,19.01,11.23,33.41,23.16,66.67,32.03,23.01,6.12,25.06,13.68,13.12,21.32-34.8,22.37-14.25,45.77-15.99,68.67-.56,7.35,14.2,18.42,50.02,10.29,91.48-20.77,173.57-9.04,256.28,3.51,29.42,4.46,56.63,9.49,89.68,12.34,51.25,4.38,56.83,13.99,16.19,23.86-15.22,3.71-27.06,7.84-9.58,11.39,45.05,9.13,45.97,24.92,74.92,36.29,72,28.26,131.81,59.12,238.65,79.5,39,7.44,67.44,20.07,63.65,35.1-2.82,11.47,11.89,20.19,35.87,29.19,65.39,24.52,78.97,54.6,102.29,83.4,7.94,9.86,23.47,16.25,50.38,23.15,43.05,11.02,88.66,26.39,85.89,41.82-5.54,30.63,59.29,45.6,132.93,59.24,53.09,9.83,96.81,20.81,119.05,37.66,8.1,6.13,21.93,9.39,42.28,12.12,67.54,9.04,76.2,18.71,34.59,35.73-53.86,22.02-54.93,33.76-7.53,51.25,15.88,5.86,32.69,6.74,54.58,3.54,17.68-2.59,34.03-5.58,27.93-12.2-6.51-7.02-44.64-15.31,2.92-20.23,46.74-4.84,98.34-9.48,138.98,4.71,14.5,5.07,27.72,10.44,41.97,15.58,24.34,8.77,26.9,16.65-5.74,24.77-36.23,9.03-69.13,19.12-104.7,28.38-56.01,14.6-57.96,23.45-6.15,38.47,68.88,19.94,132.57,41.92,240.4,45.83,11.99,.43,28.34,4.48,31.98,7.8,30.75,28.03,111.2,40.57,196.12,52.15,44.84,6.1,63.55,20.02,103.16,28.29,52.01,10.87,97.93,24.13,145.18,36.76,21.78,5.81,43.92,11.04,73.54,13.2,34.33,2.49,60.32,8.68,80.46,16.38,24.86,9.52,62.42,15.47,88.5,23.19,113.56,33.57,251.77,58.82,367.69,91.53,61.29,17.29,124.79,34.69,178.95,53.15,81.74,27.86,213.39,39.13,277.19,71.83,18.45,9.46,41.97,17.87,33.87,29.51,16.91,4.81,33.82,9.61,50.73,14.41,73.64-.51,78.41,20.21,90.81,30.76,16.76,14.26,33.72,29.15,48.73,43.92,11.17,8.19,51.86,6.17,62.62,14.49,70.57,18.15,149.74,33,227.23,48.6,27.88,5.61,57.19,9.8,87.12,13.44,62.16,7.58,92.7,25.76,147.33,34.7,120.69,19.76,203.14,51.88,314.3,74.49,12.3,2.49,19.11,6.22,20.04,10.62,21.37,3.54,38.07,8.35,50.17,14.45,17.32-.3,34.29,.29,46.17,4.17,62.32,20.32,153.53,30.38,218.77,50.05,36.28,10.93,95.73,13.02,139.85,22.44,94.65,20.22,194.63,38.45,290.77,58.12,22.6,4.62,45.2,8.41,71.44,10.54,28.03,2.28,50.02,6.06,54.06,15.1,4,.12,7.99,.23,11.99,.32,32.29-1.51,55.35,2.59,77.69,8.87,50.32,14.09,98.55,29.48,176.55,31.24,3.89,.09,8.4,.75,11.07,1.57,105.06,31.96,256.08,45.37,370.62,74.07,61.85,15.51,142.26,25.76,210.32,39.34,42.43,8.45,85.74,16.51,129.45,24.39v-65.36c-14.61-5.64-28.03-11.71-43.56-16.96-57.24-19.35-107.16-40.79-192.07-51.93-1.9-.25-4.41-.52-5.17-.99-44.18-26.25-139.19-36.25-214.57-52.01-84.81-17.71-175.52-33.57-273.25-45.44-17.32-2.1-37.31-2.84-48.74-7.35-44.59-17.54-116.53-24.76-180.18-31.08-156.92-15.6-289.75-42.93-431.65-65.54-57.65-9.18-101.42-26.09-165.17-34.64-17.78-2.39-26.14-7.58-26.54-13.39-.62-7.74-14.04-13.03-41.61-12.84-84.25,.54-122.38-17.71-152.92-33.9-36.28-19.28-97.83-33.05-127.19-53.93-15.99-11.41-24.24-18.36,13.43-25.45,42.43-8,27.36-12.39-10.81-16.1-49.09-4.78-86.15-13.13-113.51-26.28-51.65-24.76-130.68-44.6-152.2-74.88-8.15-11.45-55.19-18.18-80.1-28.55-35.67-14.83-43.25-32.1-71.75-47.22-9.94-5.28,3.48-8.8,13.94-12.6,26.6-9.7,17.12-18.7-16.4-24.12-33.52-5.41-48.28-13.47-66.98-22.29-79.33-37.51-160.86-74.59-225.18-114.48-31.72-19.65-94.7-25.99-165.37-26.99-66.67-.96-132.22,.2-198.73-6.1-65.9-6.26-127.3,2.84-180.9,14.49-14.96,3.23-28.34,7.2-44.58,9.78-28.8,4.58-62.11,11.45-86.76-.78-19.58-9.7-15.42-19.64,19.94-26.73,51.71-10.36,72.31-26.95,93.68-42.09,15.58-11.03,33.11-14.91,68.06-11.91,77.02,6.6,140.36-3.65,203.19-12.78,43.97-6.39,48.84-25.47,9.69-39.15-39.26-13.7-91.84-22.97-145.95-32.06-72.82-12.25-143.54-25.35-197.6-45.37-59.29-21.96-124.02-43.73-199.71-60.89-67.9-15.41-70.98-31.8-53.91-51.9,6.41-7.48,19.01-14.61,15.99-22.57-5.28-13.71,9.28-22.83,62.37-25.86,35.62-2.03,27.21-7.72,3.02-11.51-31.05-4.86-55.24-12.84-91.42-15.44-11.74-.83-24.19-3.46-18.81-7.84,5.59-4.61,19.63-3.46,31.72-2.38,28.08,2.51,55.81,5.35,83.99,7.71,24.29,2.04,48.22,.84,61.6-5.36,11.33-5.28-.62-12.18-14.66-14.31-96.91-14.7-159.58-42.06-254.9-56.28-91.12-13.58-167.68-30.26-233.69-52.6-50.68-17.18-114.28-31.29-171.68-46.9-66.88-18.16-86.86-43.92-107.26-66.91-13.89-15.7,35.16-36.05,66.88-51.02,29.93-14.09,110.64-5.41,138.78,4.96,82.51,30.45,201.09,17.86,302.36,24.87,16.09,1.12,39.77-.99,53.81-3.93,72.62-15.22,138.88-7.29,203.86,3.71,88.09,14.94,136.67,9.29,157.64-18.57,5.59-7.36,.87-12.57-23.06-16.55-88.5-14.76-146.26-41.12-246.55-51.72-25.88-2.72-34.33-10.6-26.44-18.22,8.92-8.61,30.13-15.04,62.78-15.18,103.47-.42,204.37-2.8,310.91,1.77,143.64,6.16,273.25,27.1,420.53,27.15,41.61,.01,67.23,12.29,108.9,16.23,53.45,5.06,98.08,3.6,145.18-2.16,15.43-1.9,31.93-6,46.07-2.41,19.47,4.94-.26,9.78-10.15,13.76-14.61,5.81-8.3,10.32,8.3,13.87,70.26,15.03,139.7,30.92,237.63,25.53,10.1-.57,22.5-1.29,30.85-.16,116.33,15.52,249.72,17.77,361.03,37.28,15.32,2.67,36.03,4.51,53.66,4.19,53.19-.96,93.22,1.85,113.97,18.19,8.92,7.03,38.95,11.29,68.88,9.51,42.94-2.57,71.95,3.1,100.19,10.94,43.4,12.03,107.72,12.51,156.2,21.93,2.97,.58,8.25,.23,12.4,.26,24.7,.13,49.56-4.7,45.2-9.74-14.76-17.28,92.45-25.38,40.13-43.79-49.76-17.52-107-31.02-197.25-29.05-50.12,1.09-96.81-8.31-138.01-15.23-44.74-7.52-91.32-13.74-139.03-15.12-95.32-2.78-163.12-24.32-256.44-27.12-3.74-.12-9.07-.96-10.25-1.83-36.28-26.71-125.5-38.48-195.56-55.7-55.45-13.62-56.73-25.45-7.38-40.92,31.72-9.93,25.83-25.92-20.65-33.45-39.51-6.39-57.91-14.84-75.33-26.25-24.09-15.81-67.54-26.76-126.48-35.21-73.03-10.47-158.2-15.47-216.26-34.19-17.48-5.62-39-11.2-34.18-18.07,21.88-31.03-63.39-43.77-124.22-60.76-16.3-4.55-35.41-8.33-51.19-13.02-47.71-14.19-103.21-21.67-174.39-19.02-28.95,1.09-58.83,.22-88.3,.19-106.8-.12-132.22-6.06-160.09-35.41-11.12-11.7-39.67-20.9-67.44-29.79-56.47-18.05-98.24-40.25-180.39-51.12-9.07-1.2-19.68-3.52-22.7-6-33.41-27.31-121.92-31.38-202.48-38.71-22.6-2.06-42.64-5.01-58.93-9.89-63.19-18.89-137.55-35.45-211.49-49.08-86.3-15.89-154.41-39.24-247.52-50.56-103.06-12.55-200.27-26.28-282.57-48.03-7.89-2.09-23.47-2.42-35.67-2.55-58.27-.64-93.68-8.57-120.79-23.55-42.38-23.39-128.02-33.7-206.88-43.19-42.48-5.12-92.86,4.94-132.53,12.97-114.12,23.16-203.96,23.6-315.11,.91-5.07-1.04-10.1-2.67-15.68-2.88-120.99-4.8-203.96-28.8-298.15-47.09-10.4-2.01-20.76-4.81-32.29-5.44-234.25-12.44-397.93-63.38-607.12-90-53.09-6.75-112.02-15.9-163.88-26.09-22.24-4.36-47.51-6.9-53.66,5.23-5.54,10.94-36.08,9.78-57.81,6.64-81.33-11.74-170.7-18.06-228.51-42.83-39.2-16.81-114.07-26.97-172.75-40.19-46.33-10.45-113.1-14.31-133.55-33.1h-214.62c-.51,2.97,3.18,6.84-2.05,8.77Zm6507.29,2382.55c24.75,1,72.36-.83,80.15,15.99,.97,2.19,14.55,5.48,22.75,5.58,66.16,.84,109.98,18.64,177.01,18.35,23.21-.1,40.18,3.22,53.76,7.97,14.3,5.01,35.26,10.75,21.06,17.2-14.04,6.41-38.28,1.29-57.65,.14-119.71-7.09-224-22.78-314.45-45.85-18.5-4.71-37.56-10.39-29.93-18.35,4.36-4.57,20.24-2.85,47.3-1.04Zm-1702.41-1443.48c4.35,11.12-33.93,14.81-64.42,15.26-37.56,.56-73.69-4.32-76.82-16.42-2.92-11.25,28.03-14.73,69.29-14.84,37.1-1.16,67.59,4.86,71.95,16Zm-451.23-185.06c1.54-.16,13.17,4.96,12.04,5.25-30.54,8.35-42.33,22.23-83.48,26.71-39,4.26-58.37-6.41-79.84-13.36-4.97-1.62-5.74-4.3-7.02-5.33,0-6.57,8.66-11.32,24.55-12.83,43.66-4.13,88.97,4.44,133.75-.44Zm-1303.56-290.92c54.17,17.51,140.78,20.92,196.48,37.38,88.61,26.18,210.67,38.57,309.58,60.4,31.83,7.03,55.5,17.03,81.38,25.18-9.12,9.91-29.98,9.62-49.09,5.83-67.75-13.52-150.46-21.71-211.29-36.1-118.28-27.95-261.51-45.28-373.69-75.08-18.04-4.78-43.82-9.52-19.94-17.57,20.09-6.77,48.99-5.73,66.57-.03ZM9106.37,13.03c58.42,14.2,82.87,34.32,115.36,52.98,47.3,27.13,121.86,47.64,198.58,67.98,85.94,22.79,171.62,45.03,238.5,73.78,52.37,22.54,78.2,53.02,183.87,64.3,16.55,1.77,29.98,7.1,50.07,6.2,62.47-2.81,106.18,7.12,154.46,15.89,115.35,20.94,227.33,43.9,361.85,55.01,28.34,2.33,52.84,7.33,72.26,13.86,25.06,8.42,56.42,14.89,92.65,17.87,106.8,8.81,160.15,32.57,206.68,57.95,22.6,12.32,48.48,23.42,84.61,32.84,93.83,24.47,173.06,52.59,251.82,80.85,36.44,13.09,83.07,21.32,139.85,28.34,88.15,10.9,172.45,26.22,246.65,43.67,67.54,15.89,123.14,34.19,165.22,57.14V322.12c-10.71-1.94-22.29-3.51-35.31-4.46-29.62-2.19-53.09-7.13-72.46-13.58-83.79-27.87-195.81-40.99-318.14-48.51-20.76-1.28-23.22-6.19-33.11-9.74-37.26-13.42-73.13-12.93-97.57,2.75-16.19,10.41-24.81,6.23-41.2,.81-27.36-9.03-61.8-10.33-104.34-11.65-72.82-2.28-143.34-5.75-193.61-28.37-63.6-28.63-150.77-53.19-262.33-69.46-65.96-9.62-113-27.92-186.43-34.95-13.22-1.26-29.06-3.99-34.85-7.28-45.1-25.52-135.29-35.25-211.65-49.99-21.62-4.17-37.36-11.13-52.89-17.38-33-13.31-89.43-18.55-126.58-30.32h-808.06c-.15,4.9,2.2,9.64,16.09,13.03ZM0,803.28c107.36,14.86,216.11,28.87,273.96,61.75,14.45,8.22,43.66,14.29,64.47,21.71,32.18,11.44,54.94,23.29,4.25,35.63-36.28,8.81-23.32,16.6,13.02,19.97,80,7.41,145.44,19.2,197.92,38.31,20.6,7.51,62.83,8.93,97.47,11.61,49.3,3.81,83.48,11.84,80.87,27.42-4.46,26.57,77.74,39.29,114.84,59.18,1.64,.88,6.92,1.67,10.61,1.72,146.26,2.23,225.64,37.83,342.12,54.93,29.77,4.38,50.99,11.64,65.9,20.83,18.3,11.28,48.22,19.13,98.09,18.36,37.05-.56,57.04,4.88,63.6,15.57,21.73,35.64,105.06,58.27,208.16,76.14,64.32,11.15,127.61,21.71,178.54,38.66,37,12.32,92.04,21.13,155.94,8.87,48.89-9.38,76.36,1.9,106.08,10.25,19.27,5.42,24.39,11.38,6.76,17.41-28.39,9.74-64.67,9.99-102.39,4.99-13.37-1.77-25.37-4.29-41.1-3.68-13.42,.54-24.55,2.32-27.72,6.19-3.64,4.39,5.59,6.74,20.04,7.22,62.32,2.07,57.14,9.87,24.39,21.05-19.73,6.74-8.51,12.84,9.07,19.1,88.14,31.48,198.89,50.11,344.33,49.43,33.57-.14,60.01,4.94,88.2,8.78,42.89,5.83,82.92,14.36,135.7,9.42,8.61-.81,20.29,.93,30.54,1.54,31.67,1.88,53.76,6.73,59.09,16.16,2.92,5.12-3.89,10.28-20.09,12.07-29.77,3.33-65.54,4.97-89.63-1.45-26.24-7-48.68-15.7-81.07-5.12-34.34,11.2-96.6,20.29-56.78,40.4,17.01,8.59,40.59,15.04,71.23,19.49,39.56,5.74,73.44,12.1,54.88,27.37-2.92,2.43,.51,6.06,5.07,8.54,12.1,6.54,138.16,14.83,159.79,10.25,20.55-4.35,42.43-6.26,64.57-3.17,26.95,3.77,52.58,9.42,43.4,19.32-8.97,9.65-35.1,12.97-68.93,9.83-39.2-3.65-67.95-.91-76.97,10.93-8.46,11.13,4,15.68,49.14,20.76,56.53,6.35,114.33,15.65,162.04,28.15,56.17,14.71,107.77,13.34,126.12-5.45,22.86-23.42,83.43-25.45,148.51-27.66,25.01-.84,50.27-.29,74.72,2.19,24.6,2.48,64.83-.81,70.87,7.96,6.46,9.41-35.1,7.62-55.3,10.64-24.09,3.61-17.89,7.09-3.49,10.8,10.81,2.78,25.06,4.49,35.46,7.36,20.45,5.64,51.55,10.25,43.51,20.15-8.35,10.25-38.54,15.23-71.44,18.35-116.69,11.04-117,11-28.65,34.34,16.04,4.23,23.93,9.47,32.08,15.03,27.47,18.83,57.96,36.89,130.32,45.9,31.72,3.96,39.36,9.65,6.56,17.29-26.75,6.22-23.27,16.09,7.53,18.64,73.9,6.07,117.25,23.25,174.7,35.11,26.49,5.48,63.55,7.33,79.48,16.78l.05,.03c15.78,.25,24.14,2.62,25.37,7.04l.05,.04c60.27-12.33,130.06-.59,194.22-5.94,19.37-1.61,39.72,5.97,44.48,12.91,12.96,18.97,47.76,33.6,104.49,44.32,8.35,1.58,17.22,4.1,20.04,6.7,31.06,28.63,120.94,38.28,202.78,50.27,53.91,7.88,83.33,24.65,144.16,30.21,17.58,1.61,33.82,4.77,52.99,4.15,42.13-1.38,89.63-6.02,88.76,14.1-.05,.44,2.87,1.32,3.79,1.26,87.78-5.7,96.24,23.28,158.3,29.12,14.5,1.36,30.29,5.32,36.64,9.22,14.86,9.19,34.95,12.15,69.59,9.44,36.33-2.84,59.39,5.04,80.61,10.93,82.56,22.86,180.9,39.57,274.99,57.92,19.37,3.77,40.38,7.36,47.86,13.67,14.91,12.49,46.48,17.31,89.63,18.91,33.11,1.23,50.78,4.78,14.76,12.93-19.68,4.45-30.44,10.07-18.55,17.16,11.17,6.67,32.08,8.94,57.09,8.91,33.62-.03,67.23,.26,100.85,.01,34.69-.26,72.67,.91,95.73,7.06,69.85,18.65,160.3,29.68,224.97,50.01,10.2,3.2,24.44,8.22,9.23,10.45-71.18,10.41-27.68,23.55-14.5,36.08l.31,.09c54.73,3.54,95.78,14.26,142.77,21.83,78.36,12.61,163.89,22.47,229.48,40.26,55.81,15.13,105.26,32,177.42,41.41,13.27,1.73,26.55,5.86,38.64,5.51,70.67-2.03,89.37,21.7,151.07,23.74,4.46,.15,11.43,2.64,11.28,3.99-3.03,30.13,92.29,34.09,155.43,46.15,23.88,4.57,43.25,9.25,53.19,16.73,25.67,19.35,78.92,29.61,144.77,36.21,61.03,6.13,75.33,21.58,81.38,37.03,4.36,11.19,17.12,18.71,53.55,23.89,44.79,6.38,57.09,19.61,73.64,31.68,4.25,1.22,8.56,2.42,12.81,3.62,52.38-.85,78.36,12.45,118.54,18.26,131.19,18.99,262.38,38.48,385.63,61.21,129.4,23.87,267.92,43.27,395.26,68.17,62.93,12.32,119.15,28.09,193.15,35.93,10.56,1.12,21.27,4.36,25.93,7.36,32.18,20.7,97.42,28.29,166.91,33.71,45.2,3.54,75.54,12.94,106.59,21.13,90.96,24.02,201.96,32.66,319.06,40.48,84.97,5.68,169.47,12.71,254.7,18.63,17.58,1.22,28.65,5.04,32.13,10.07,14.09,20.29,70.62,31.73,116.94,45.31,22.86,6.68,49.97,10,83.38,11.02,130.99,3.97,241.11,18.35,337,45.64,61.91,17.61,148,28.51,224.31,41.96,101.98,17.97,204.48,35.42,293.13,59.01,80.41,21.38,164.24,42.09,253.77,60.27,59.04,12,132.78,17.25,207.6,17.78,55.5,.39,109.62,2.36,160.66,8.38h949.55c-74.31-16.81-147.13-34.15-222.92-50.43-13.22-2.84-28.03-5.61-43.61-6.93-108.03-9.16-198.38-29.44-307.48-38.4-35-2.87-66.83-12.54-91.48-21.09-70.21-24.32-168.5-36.64-263.56-49.47-61.09-8.25-102.85-21.63-148.56-33.92-47.92-12.9-97.22-21.74-165.22-22.45-44.84-.48-83.94-8.16-118.89-14.94-90.5-17.54-189.87-29.5-288.57-42.37-63.91-8.35-122.53-20.03-169.17-35.92-53.09-18.06-134.11-26.35-193.1-42.51-41.1-11.26-85.17-20.87-145.28-22.96-42.95-1.48-42.23-15.12-68.88-21.73-54.12-13.44-115.05-24.79-180.29-31.06-72.26-6.94-118.28-21.84-173.78-33.96-56.88-12.41-130.73-16.52-183.36-30.42-97.78-25.84-188.02-53.88-295.69-76.86-40.13-8.57-84.2-15.49-122.33-24.87-17.63-4.33-38.18-7.45-40.23-14.91-4.25-1.19-8.46-2.38-12.71-3.58-74.15-5.75-130.73-20.7-191.41-32.32-193.92-37.16-380.76-77.27-570.68-116.11-15.68-3.19-31.88-5.86-33.88-11.96-4.05-.06-8.15-.13-12.25-.23-84.3-8.16-145.64-26.66-220.46-38.98-70.31-11.6-122.63-29.44-191.82-41.18-27.01-4.58-31.57-11.9-28.7-19.99-9.43-4.49-15.83-9.86-38.07-10.73-25.37-.3-39.92-4.74-50.74-10.61-54.68-14.31-109.31-28.61-163.94-42.92-23.16-.65-25.83-5.33-25.83-10.54-15.83-5.04-40.18-7.7-50.17-14.36-2.1-.07-4.71,.06-6.15-.25-89.73-19.42-201.3-25.15-301.07-38.25-40.74-5.35-83.74-9.65-129.04-11.71-54.27-2.45-94.24-10.84-118.28-25-27.83-11.02-70.05-14.89-113.26-18.26-19.22,.77-35.98,.41-37.72-6.7l-.92-.22c-28.6-2.32-58.63,0-85.99-1.03-52.79-1.99-107.82-4.26-141.9-19.51-30.75-13.76-91.32-16.15-136.78-24.47-45.86-8.39-82.51-17.1-102.49-32.08-18.96-14.22-50.07-26.22-113.05-26.93-11.69-.13-27.68-1.81-33.72-4.3-50.84-21-146.62-24.07-205.55-41.79-16.14-4.83-39.72-6.03-63.7-6.65-141.75-3.73-252.29-34.41-266.84-73.69-16.19-43.58-136.21-75.25-314.86-83.07-67.54-2.96-135.96-28.47-128.17-47.8,13.84-34.37-13.63-47.93-124.53-61.56-7.69-.94-17.47-1.65-21.93-3.38-62.11-23.8-170.75-34.51-218.46-62.3-8.97-5.22-25.42-8.73-43.97-9.35-121.97-4.12-164.24-34.03-227.94-56.54-20.81-7.38-33.41-16.18-67.49-20.03-11.02-1.26-25.57-3.93-28.14-6.7-22.09-24.21-109.21-31.82-156.45-49.61-20.6-7.75-58.06-9.8-91.17-10.96-160.2-5.58-258.44-32.66-321.37-72.5-4.25-2.71-6.66-6.58-14.2-7.81-75.9-12.39-130.73-31.86-197.3-46.87-110.08-24.84-240.09-42.29-350.94-67.34-23.16-5.25-45.51-10.52-72.82-13.83-60.01-7.28-95.83-18.58-81.64-38.42-4-.13-7.99-.2-12.04-.25-16.04-.15-24.39-2.49-25.21-7.02l-.51-.07c-97.42,2.33-169.42-5.59-208.11-34.12-33.11-24.47-96.4-44.19-157.79-63.69-34.39-10.93-74.46-19.51-129.04-19.77-37.25-.17-56.22-6.71-57.5-15.44-1.95-13.28-32.03-18.77-66.93-23.16-53.45-6.72-94.7-17.03-128.47-30.39-46.69-18.49-119.87-25.68-190.69-32.8-63.96-6.41-110.64-17.48-135.34-34.73-32.64-22.79-94.65-33.6-174.39-39.24-22.86-1.62-54.93-1.52-60.68-10.32-5.74-8.8,22.29-12.09,43.71-15.47,46.53-7.36,46.17-16.1,18.09-27.71-52.12-21.54-95.93-44.15-102.39-71.2-2-8.16,7.48-15.16,14.91-22.51,16.29-16.09,12.25-29.23-42.13-40.7-64.26-13.55-125.71-27.47-204.99-33.67-49.66-3.88-62.47-16.23-72.36-28.79-16.81-21.31-5.38-32.16-115.25-31.58-61.29,.32-114.13-11.06-172.39-15.93-19.01-1.59-37.51-6.99-38.08-13.26-1.43-15.44-40.89-23.7-70.46-34.42-56.52-20.49-107.87-42.44-144.57-66.17-22.29-14.42-49.66-25.41-95.78-33.71-55.45-9.96-103.31-22.28-134.06-39.21-15.58-8.58-42.54-12.83-75.49-14.35v260.61Zm3657.93,1560.55c-5.74,5.2,15.22,7.8,28.8,10.36,35.87,6.77,26.6,16.64,21.01,25.82-4.3,7.15-14.61,13.23,28.39,10.8,38.69-2.22,55.35,2.84,44.28,14.34-14.61,15.2,18.14,17.57,59.8,16.52,93.16-2.35,123.55,3.48,167.11,25.83,27.62,14.2,75.74,24.42,133.14,27.48,55.04,2.93,80,12.09,87.94,26.06,5.33,9.32,15.94,16.6,45.15,22.15,60.73,11.55,119.71,23.87,179,36,19.99,4.09,35.31,8.83,66.52,7,30.24-1.77,44.43,7.31,47.97,13.71,14.09,25.28,86.86,37.09,146.72,50.83,45.2,10.36,92.19,20.48,140.11,30.05,55.91,11.16,69.13,26.89,51.96,44.11-22.09,22.12-62.83,29.37-138.31,31.47-110.8,3.07-205.91,17.54-293.59,36.09-27.16,5.75-50.22,13.6-85.84,3.57-18.65-5.25-37.05-2.94-42.69,3.55-8.87,10.22-33.52,14.44-65.8,16.81-17.06,1.25-30.44,3.51-35.61,8.9-13.12,13.71,61.29,40.37,110.23,38.63,26.75-.94,42.64,2.39,59.65,7.44,65.85,19.48,72.87,19.64,146.72,3.67,23.57-5.12,44.02-5.45,68.31-.49,30.6,6.23,63.55,11.52,94.29,17.7,35.93,7.23,65.44,13.7,103.83-1.01,20.24-7.77,59.7-1.55,87.84,2.09,26.24,3.41,24.8,10.8,17.73,17.15-13.12,11.78-10.51,20,42.38,20.99,29.62,.55,38.23,6.59,36.8,13.84-2.2,11.38,10.91,18.02,55.71,18.52,26.7,.3,52.17,4.64,51.66,12.88-.56,9.42-31.52,7.7-53.45,7.86-24.75,.17-54.17,1.54-57.29,8.26-7.43,15.96-50.68,16.76-89.53,20.31-19.88,1.83-42.23,3.31-43.46,10.91-1.18,7.35,17.99,10.71,38.33,12.38,31.47,2.57,50.89,7.78,59.34,16.6,8.87,9.26,33.67,15.06,59.8,19.97,38.69,7.28,36.8,14.99,6.92,23.31-25.37,7.07-51.14,14.12-78.77,20.44-47.2,10.8-49.97,22.07,.26,31.19,40.08,7.28,45.82,12.83,4.46,20.7-15.63,2.99-21.57,8.26-10.2,12.52,14.5,5.45,36.95,3.91,49.3-.44,35.46-12.49,66.62-10.07,104.9-.68,32.8,8.06,67.54,2.23,98.96-2.78,13.58-2.16,26.6-3.99,40.74-1.03,15.99,3.33,7.43,6.84,1.59,10.91-14.25,9.96,3.43,11.62,33.21,8.88,20.96-1.93,43.97-7.8,62.42-.65,15.12,5.86-4.15,10.81-16.76,15.65-24.8,9.52,4.56,15.06,21.78,21.38,14.71,5.38,46.89,9.23,33.36,17.47-17.48,10.67-60.21,9.75-93.73,11.91-31.77,2.04-35.51-5.55-40.13-12.31-7.18-10.57-36.54-7.7-60.47-7.09-69.18,1.78-123.91,13.67-183.46,21.94-23.16,3.22-44.53,5.64-70.62,6.22-52.12,1.17-65.44,10.55-35.16,23.39,4.87,2.07,9.94,4.09,15.22,6.04h4985.99c-90.24-13.19-182.9-25.16-266.23-41.53-44.84-8.81-85.99-18.25-116.89-31.02-4.05-.09-8.09-.15-12.14-.17-58.73-2.44-89.99-16.62-134.11-25.26-49.66-9.71-93.42-22.19-160.3-21.99-87.27,.26-148.46-16.57-216.26-28.13-66.52-11.35-135.19-21.38-203.76-31.57-30.03-4.45-60.11-8.91-81.69-16.32-47.87-16.45-110.28-24.26-183.26-27.08-24.75-.96-47.04-4.41-69.69-7.74-183-26.92-366.31-53.61-550.6-79.79-58.22-8.28-101.62-20.77-138.52-35.15-20.96-8.19-49.91-11.47-78.25-16.45-72.31-12.68-146.98-23.41-224-33.63-98.09-13.03-191.51-28.73-294.11-39.38-46.63-4.84-92.65-10.94-130.22-21.22-17.48-4.78-42.02-9.74-64.73-10.33-53.3-1.38-86.15-11.03-122.53-19.74-12.56-1.22-25.11-2.45-37.67-3.68-15.27,4.52-33.82,8.25-55.71,5.8-111.82-12.52-226.41-23.74-315.22-48.28-14.97-4.12-31.72-7.99-33.57-14.55-8.25-.07-16.5-.14-24.75-.22-56.42,4.35-96.39-6.94-139.03-13.19-62.67-9.16-121.15-20.39-189.1-26.87-66.21-6.32-120.48-17.54-138.21-37.97-8.92-10.29-32.8-15.34-64.01-17.55-133.91-9.52-252.13-27.03-357.4-52.35-35.2-8.47-85.58-9.1-128.27-13.81-67.59-7.45-129.71-19.74-209.14-19.15-45.81,.35-80.56-7.87-108.39-20.54-31.77-14.44-89.84-22.73-144.21-30.53-39.61-5.68-70.57-14.78-105.82-21.44-73.54-13.9-145.23-31.16-244.39-30.28-39.31,.36-68.98-8.22-99.52-14.25-42.69-8.42-80.56-10.04-134.11-4.83-61.7,6-117.87-7.15-168.45-16.25-32.08-5.77-54.37-16.25-78.31-25.22-25.06-9.38-51.96-11.73-96.03-11.49-53.25,.28-121,1.39-146-19.06-28.54,.75-47.25-3.93-64.47-9.36-17.73-5.58-38.33-9.42-66.01-8.44-17.42,.61-42.33-2.78-49.71,3.9Zm1661.26,410.52c18.96,.78,33.77,4.09,31.98,9.31-6.3,18.55,35.16,18.6,83.99,24.23,80.3,9.25,160.86,15.86,243.01,23.03,166.45,14.52,326.44,36.16,482.33,58.61,91.78,13.22,185.36,27.8,255.36,50.85,16.04,5.29,29.16,10.65,19.73,17.58-10.15,7.48-34.75,4.73-55.25,4.97-32.69-3.83-49.51-.9-57.09,9.28-7.28,9.77-31.11,10.12-57.09,4.77-31.06-6.41-63.08-11.42-103.98-10.47-31.01,.72-39.97-7.86-56.63-12.7-79.43-23.07-174.39-35.92-288.83-36.35-34.8-.13-59.29-4.9-80.71-11.9-25.32-8.28-64.67-10-93.83-15.04-96.19-16.63-222.97-19.12-290.98-49.03-9.69-4.28-27.73-7.03-41.92-10.48-21.78-5.31-39.05-11.2-27.01-20.03,10.1-7.38,7.99-13.84-12.61-19.61-11.07-3.13-17.68-6.74-6.35-11.03,14.14-5.35,33.46-6.88,55.86-5.99Zm-1481.08-396.62h.1l-.15-.04s.05,.03,.05,.04ZM0,2684.73v110.68c82.46,.71,114.89,22.44,171.68,33.77,46.84,9.35,86.35,15.07,143.75,10.2,40.33-3.42,73.23,1.49,93.83,12.57,45.81,24.58,102.39,46.24,196.33,58.01,14.3,1.78,27.42,5.73,35.92,9.58,86.51,39.06,219.23,58.57,373.08,63.53,83.33,2.67,141.9,12.77,195.86,27.79,43.87,12.22,94.4,21.26,146.26,30.24,48.12,8.32,93.48,16.23,61.55,37.73-25.88,17.42,11.94,30.64,80.71,34.37,59.91,3.26,99.52,10.78,122.53,28.57,21.11,16.33,57.7,31.8,124.27,38.02,45.3,4.25,71.9,13.84,86.71,26.32,12.66,10.68,38.49,18.55,71.08,24.26,44.48,7.77,97.88,12.23,111.15,29.68,3.64,4.78,23.06,5.87,40.95,6.71,132.37,6.2-428.42,35.05-531.48,7.78-47.1-12.47-87.07-27.6-156.87-31-9.33-.45-21.58-2.61-25.16-4.88-30.44-19.23-92.55-29.54-145.64-42.42-61.04-14.8-133.55-24.86-197.66-38.08-49.56-10.2-108.39-16.02-151.74-30.12-34.28-11.15-86.81-20.41-144.87-21.7-32.69-.72-51.14-4.1-58.27-12.8-8.4-10.23-38.23-14.22-64.42-20.31-109.31-25.41-239.84-41.34-353.75-65.24-75.23-15.78-127.04-41.51-225.79-48.35v103.53c51.86,3.29,91.58,12.55,121.86,23.73,42.94,15.84,94.24,26.6,163.53,30.31,33.62,1.8,44.79,8.86,57.7,16.87,55.4,34.29,163.37,52.54,274.22,69.63,17.22,2.65,32.49-.48,47.51-2.49,90.35-12.09,180.9-13.44,273.35-1.54,60.26,7.75,78.77,21.51,51.04,38.67-24.96,15.42-.05,31.24,18.09,44.12,8.51,6.03,20.75,12.18,37.46,17.48H3546.62c-230.1-6.19-399.37-12.35-417.97-17.09-52.68-13.44-130.12-20.64-195.56-31.26-89.07-14.47-169.57-32.1-251.72-49.22-29.93-6.25-63.14-7.6-101.21-9.38-95.47-4.45-198.84-6.93-273.35-28.92-19.37-5.73-27.57-12.36-17.83-19.54,14.86-10.96-2.77-16.97-34.64-21.35-39.05-5.38-71.28-12.99-88.5-24.29-23.01-15.12-65.13-21.1-119.2-21.19-32.28-.04-55.3-2.45-73.18-10.67-15.27-7.02-39.41-12-65.49-16.28-88.76-14.55-180.59-28.02-263.2-45-62.11-12.76-118.18-27.38-188.79-37.15-29.11-4.01-55.81-9.99-88.09-12.7-27.01-2.25-56.68-5.67-65.8-12.73-19.88-15.35-58.01-20.23-110.54-20.67-56.42-.45-80.97-7.35-56.47-23.64,3.08-2.04,1.18-4.7,1.54-7.07l-.31-.09c-27.98,.7-53.5-.17-75.44-6.23-14.14-3.93-32.39-4.12-52.73-2.33-60.52,5.29-142.67-10.23-143.13-28.48-.2-9.97-14.4-15.8-38.38-20.57-61.5-12.25-124.99-23.71-186.54-35.95-20.35-4.06-40.69-8.81-54.88-14.48-22.86-9.15-49.81-15.42-88.45-18.51-17.17-1.38-34.64-4.84-46.38-8.73-60.42-19.91-143.9-31.08-216-46.51-20.5-4.39-42.95-7.1-69.39-7.41-38.85-.44-74.31-3.61-101.26-12.16-17.27-5.49-40.18-5.8-63.7-5.62Zm0,606.92c18.34,1.55,34.23,4.7,47.51,8.29H449.28c-6.61-1.87-12.61-4.1-18.81-6.71-31.62-13.25-78.1-21.7-134.93-24.16-19.01-.81-29.21-4.17-41.41-7.29-15.73-4.01-33.31-9.25-54.22-7.71-46.58,3.42-65.96-2.88-77.95-13.99-7.02-6.48-23.88-8.88-47.86-9.28-24.86-.41-49.4-2.22-74.1-3.42v64.27Z"/></g></svg>