<?xml version="1.0" encoding="UTF-8"?><svg id="Layer_2" xmlns="http://www.w3.org/2000/svg" viewBox="0 0 636.03 281.98"><defs><style>.cls-1{fill:#4c3d2f;font-family:BalsamiqSans-Regular, 'Balsamiq Sans';font-size:25.73px;letter-spacing:.04em;}.cls-2{fill:none;stroke:#4c3d2f;stroke-miterlimit:10;}</style></defs><g id="Layer_1-2"><g><g><rect class="cls-2" x="71.8" y=".5" width="563.74" height="201.54"/><rect class="cls-2" x="86.69" y="13.77" width="533.95" height="174.99"/><g><path class="cls-2" d="M174.43,71.84c-.08,.75-.15,1.51-.22,2.26-1.25,14.32,.12,28.75,.67,43.15,.06,1.6,.11,3.21,.15,4.81,.07,3.18,.08,6.35,0,9.53-.1,4-.37,7.99-.85,11.97-1.25,10.28-4.13,20.61-10.32,28.91-8.09,10.86-21.74,17.33-35.27,16.73-12.29-.55-24.15-6.93-31.53-16.74-.75-.99-1.45-2.02-2.1-3.08-7.93-12.92-8.23-28.95-8.3-44.1-.03-5.74-.05-11.47-.08-17.21-.04-9.46-.09-18.92-.13-28.38-.06-15.06,.07-30.92,7.57-43.98,9.32-16.21,30.08-24.87,48.15-20.1,18.08,4.77,31.86,22.54,31.97,41.24,.01,2.02-.17,4.17-1.4,5.77-2.12,2.76-7.06,3.17-11.15,3.48-1.36,.1-2.63,.19-3.66,.36-5.18,.83-10.53,1.31-15.64,2.62-2.23,.57-4.41,1.3-6.51,2.28-7.03,3.3-9.27,7.44-12.36,13.97-.12,.25-.24,.51-.37,.78"/><path class="cls-2" d="M174.97,117.24h-.09c-17.58,.03-29.33,8.59-34.51,24.35-6.65,20.21-35.96,2.03-43.3,30.87-.09,.33-.17,.67-.25,1.01"/><path class="cls-2" d="M86.66,108.07c13.97,0,24.29-4.61,31.23-13.23,.01-.01,.02-.02,.03-.03"/><path class="cls-2" d="M142.33,69.42v-.34c0-4.06-.07-7.9-.17-11.25-.19-6.73-5.57-12.08-12.14-12.08-3.35,0-6.39,1.39-8.58,3.65s-3.55,5.36-3.55,8.8v53c0,5.77,4.56,10.45,10.18,10.45,2.81,0,5.36-1.17,7.2-3.06,1.84-1.89,2.98-4.5,2.98-7.38v-4.7c0-4.33-3.42-7.84-7.63-7.84-2.11,0-4.02-.87-5.4-2.3-1.38-1.42-2.24-3.38-2.24-5.54l.47-5.5,.02-.27"/><path class="cls-2" d="M153.78,67.38c3.02-.58,5.62-.95,7.86-1.13,9.78-.78,12.57,2.11,12.57,7.85"/><path class="cls-2" d="M263.76,120.73c.19,.75,.28,1.65,.28,2.74v52.22c0,7.1-5.76,12.86-12.86,12.86h-63.27c-7.1,0-12.86-5.75-12.86-12.86V26.63c0-7.1,5.76-12.86,12.86-12.86h63.27c7.1,0,12.86,5.76,12.86,12.86v23.88s-3.03,8.96-20.61,3.65c-17.58-5.31-27.53,0-27.53,6.63s10.28,8.96,21.56,4.64c11.28-4.31,25.87-3.98,25.87,10.28,0,8.47,.23,10.97,.42,13.7,.07,1.09,.15,2.22,.19,3.78,.03,1.1,.05,2.41,.05,4.08,0,1.5-.07,2.88-.24,4.14-.97,7.08-5.2,10.26-19,9.13-16.25-1.33-26.53-3.98-26.53,2.98s12.94,8.29,27.2,5.97c12.23-1.99,17.17-3.25,18.34,1.23Z"/><path class="cls-2" d="M621.54,90.22c.11,1.65,.19,3.59,.19,7.05,0,9.95-2.98,14.6-19.24,13.27-16.25-1.33-26.53-3.98-26.53,2.98s12.93,8.29,27.2,5.97c14.26-2.33,18.61-3.65,18.61,3.98v52.22c0,7.1-5.75,12.86-12.86,12.86h-63.27c-7.1,0-12.86-5.75-12.86-12.86V26.63c0-7.1,5.75-12.86,12.86-12.86h63.27c7.1,0,12.86,5.76,12.86,12.86v23.88s-3.02,8.96-20.6,3.65c-17.58-5.31-27.53,0-27.53,6.63s10.29,8.96,21.56,4.64c11.28-4.31,25.87-3.98,25.87,10.28,0,9.3,.28,11.41,.47,14.51Z"/><polyline class="cls-2" points="264.04 118.17 264.04 93.19 264.04 53.28 264.04 50.51"/><path class="cls-2" d="M264.04,149.05c2.47,22.22,21.33,39.51,44.22,39.51,24.57,0,44.5-19.92,44.5-44.5V58.27c0-24.58-19.92-44.5-44.5-44.5-12.29,0-23.41,4.98-31.47,13.04-6.94,6.95-11.6,16.18-12.75,26.48-.19,1.64-.28,3.3-.28,4.99v85.8c0,1.69,.09,3.35,.28,4.99Z"/><path class="cls-2" d="M371.23,21.95s.06-.05,.09-.06c7.39-5.65,16.91-8.01,26.68-8.01,24.92,0,45.11,21.65,45.11,48.35,0,2.54-.19,5.03-.55,7.47-3.3,22.18-20.99,39.9-42.11,41.48-.21,.02-.42,.03-.62,.05"/><path class="cls-2" d="M443.18,69.66c-.21,.02-.42,.03-.63,.05-15.16,1.03-24.36-13.26-33.36-23.16-11.69-12.84-29.29-2.66-35.36,11.26-7.69,17.64,2.37,35.57,16.24,46.65,3.22,2.57,6.74,4.74,10.37,6.73,10.74,5.9,22.49,10.38,30.57,19.87,11.11,13.04,16.32,31.97,16.32,48.76,0,4.82-3.91,8.73-8.73,8.73h-76.07c-4.82,0-8.73-3.91-8.73-8.73V22.5c0-4.82,3.91-8.73,8.73-8.73h.09c2.83,0,5.17,2.1,5.64,4.89,.29,1.69,1.09,3.18,3.02,3.18"/><circle class="cls-2" cx="398.11" cy="71.08" r="5.53"/><circle class="cls-2" cx="306.53" cy="93.14" r="5.53"/><path class="cls-2" d="M351.58,127.26c-19.24,0-25.31,31.08-44.96,27.36-7.13-1.35-12.09-7.77-11.1-15.02,2.98-21.81,31.88-29.75,31.03-51.74-.77-19.57-26.1-23.21-38.37-7.66-6.31,8.01-10.42,12.92-24.15,12.99-.03,0-.06,0-.09,0h-.24"/><path class="cls-2" d="M405.27,189.01v-.45c-.15-21.67-11.15-45.52-30.54-56.36-6.83-3.82-13.86-5.69-20.94-5.17-.34,.03-.69,.06-1.04,.1-.39,.04-.78,.09-1.17,.15-.05,0-.09,.01-.13,.02"/><path class="cls-2" d="M444.03,121.24v26.91c0,22.32,18.09,40.41,40.41,40.41h8.18c20.81,0,37.94-15.72,40.16-35.94,.17-1.47,.25-2.96,.25-4.47V54.17c0-1.51-.09-3-.25-4.47-2.22-20.21-19.36-35.94-40.16-35.94h-8.18c-22.32,0-40.41,18.09-40.41,40.41V121.24Z"/><path class="cls-2" d="M500.08,88.82s.08-.02,.12-.03c18.33-4.22,27.04-4.88,32.58-13.39,.09-.13,.17-.26,.25-.39,.03-.04,.05-.09,.08-.13"/><path class="cls-2" d="M532.76,95.17h-36.88c-3.11,0-5.62,2.52-5.62,5.62v14.52c0,3.11,2.51,5.62,5.62,5.62,1.6,0,3.04,.65,4.09,1.7s1.69,2.49,1.69,4.09v3.32c0,4.83-3.91,8.74-8.74,8.74h-1.47c-4.83,0-8.74-3.91-8.74-8.74v-61.27c0-4.83,3.91-8.74,8.74-8.74,2.42,0,4.6,.98,6.18,2.56,1.58,1.58,2.56,3.77,2.56,6.18v20.15"/><path class="cls-2" d="M443.19,69.73c.28,0,.56,0,.84-.03,15.16-.91,23.86-26.35,46.67-26.35s19.24,14.21,42.08,14.45c.08,0,.17,0,.25,0,.12,0,.25,0,.37,0"/><path class="cls-2" d="M263.99,34.26c-16.07,5.56-33.96-1.02-50.97-1.07-5.89-.02-12.16,.92-16.62,4.77-5.8,4.98-7.04,13.58-6.03,21.16,1.13,8.41,5.48,17.38,13.58,19.89,3.07,.96,6.37,.87,9.53,1.51,3.16,.64,6.44,2.29,7.58,5.3,1.36,3.6-.94,7.66-4.02,9.96-3.08,2.3-6.86,3.44-10.21,5.34-11.63,6.61-16.05,23.34-9.2,34.83,4.4,7.38,12.37,12.08,20.66,14.33s17,2.35,25.59,2.45c6.31,.06,13.81,.25,20.16,.31,.11,0,.21,0,.31,0"/><path class="cls-2" d="M621.77,90.27c-.07-.02-.15-.03-.23-.05-14.53-2.75-31.03-7.63-45.81-7.19-24.7,.74-32.99,33.81-10.34,45.05,5.87,2.92,12.41,4.51,17.89,8.12,6.19,4.06,12.41,12.48,7.14,19.73-3.7,5.08-10.77,4.86-16.3,3.66-8.08-1.74-15.26-6.18-22.76-9.68-5.75-2.68-12.11-4.84-18.35-4.68-.08,0-.17,0-.25,0-1.81,.06-3.59,.31-5.36,.81-6.87,1.93-12.26,7.15-18.57,10.48-11.98,6.32-31.34,6.21-39.54-6.37-4.53-6.95-3.45-16.58-8.36-23.28-3.74-5.11-10.86-7.47-16.93-5.64-.14,.04-.27,.08-.41,.13"/></g></g><g><text class="cls-1" transform="translate(2.55 111.07)"><tspan x="0" y="0">5”</tspan></text><text class="cls-1" transform="translate(328.92 273.08)"><tspan x="0" y="0">12”</tspan></text><line class="cls-2" x1="308.25" y1="266.06" x2="75.29" y2="266.06"/><line class="cls-2" x1="616.56" y1="266.06" x2="383.59" y2="266.06"/><line class="cls-2" x1="616.56" y1="258.5" x2="616.56" y2="273.61"/><line class="cls-2" x1="75.29" y1="258.5" x2="75.29" y2="273.61"/><g><line class="cls-2" x1="7.56" y1="74.89" x2="7.56" y2="1.69"/><line class="cls-2" x1="15.11" y1="1.69" x2="0" y2="1.69"/></g><g><line class="cls-2" x1="7.56" y1="126.94" x2="7.56" y2="200.14"/><line class="cls-2" x1="0" y1="200.14" x2="15.11" y2="200.14"/></g></g></g></g></svg>