<?xml version="1.0" encoding="UTF-8"?><svg id="Layer_2" xmlns="http://www.w3.org/2000/svg" viewBox="0 0 16 16"><defs><style>.cls-1{fill:#f27922;}.cls-2{fill:#ebcbb0;}.cls-3{fill:#f1eee9;}</style></defs><g id="Layer_1-2"><g><rect class="cls-1" width="16" height="16"/><g><path class="cls-3" d="M12.24,6.89c0,.07-.01,.15-.01,.22-.04,.45-.06,.92-.06,1.4,0,.24,0,.47,.02,.68h0c.05,1.85,.34,3.11,.53,3.76,.08,.26-.09,.53-.32,.53-.37,0-.92-.01-1.49-.01,0-.12,.01-.25,.02-.38,.03-1.25-.12-2.52-.76-3.55-.64-1.03-1.62-1.63-2.68-1.79-.54-.08-1.07-.26-1.53-.6-1.35-1.02-1.18-3.06-.66-4.6,.18,0,.35,0,.49,0,.82,0,1.31,.91,1.66,1.54,.42,.77,.73,1.78,1.53,2.23,.29,.16,.71,.21,.73-.23,.02-.47-.23-.93-.3-1.39-.08-.53-.09-1.08,.03-1.6,.05-.2,.09-.32,.24-.45,.12-.1,.3-.14,.44-.16,.17-.01,.36,0,.54,0h1.81c.22,0,.38,.24,.33,.49-.22,1.06-.37,2.03-.47,2.93-.04,.33-.06,.65-.09,.95Z"/><path class="cls-2" d="M10.16,9.56c.64,1.03,.8,2.3,.76,3.55,0,.13,0,.25-.02,.38-.15,0-.31,0-.46,0-.45,0-.96,.05-1.38-.18-.65-.35-.81-1.24-1.05-1.89-.13-.35-.92-1.84-1.48-1.34-.22,.2,.03,.85,.07,1.09,.09,.45,.17,.9,.14,1.36-.02,.45-.28,.93-.77,.93H3.54c-.22,0-.38-.24-.33-.5,.93-4.4,.27-8.5,0-9.88-.05-.25,.11-.49,.32-.49,.45,0,1.17-.02,1.76-.02-.52,1.54-.69,3.58,.66,4.6,.46,.35,1,.52,1.53,.6,1.06,.16,2.04,.76,2.68,1.79Z"/></g></g></g></svg>