<?xml version="1.0" encoding="UTF-8"?><svg id="Layer_2" xmlns="http://www.w3.org/2000/svg" viewBox="0 0 126.49 26.58"><defs><style>.cls-1{fill:#f27922;}</style></defs><g id="Layer_1-2"><g><path class="cls-1" d="M29.46,.77c-.16,3.96-.25,8.19-.25,12.71s.08,8.79,.25,12.74h-12.57L8.39,7.06l.63,19.17H0c.19-4.54,.28-8.79,.28-12.74S.19,5.31,0,.77H12.92l8.53,19.7L20.85,.77h8.6Z"/><path class="cls-1" d="M36.06,23.08c-2.53-2.33-3.79-5.6-3.79-9.81s1.26-7.42,3.77-9.76c2.52-2.34,6.47-3.51,11.85-3.51s9.37,1.17,11.88,3.51c2.52,2.34,3.77,5.59,3.77,9.76s-1.25,7.51-3.76,9.83c-2.5,2.32-6.47,3.48-11.9,3.48s-9.3-1.16-11.83-3.49Zm17.45-5.16c1.15-.99,1.72-2.54,1.72-4.65s-.57-3.59-1.72-4.6c-1.15-1.01-3.02-1.51-5.62-1.51s-4.44,.5-5.58,1.51c-1.15,1.01-1.72,2.54-1.72,4.6s.57,3.63,1.72,4.63c1.15,1.01,3.01,1.51,5.58,1.51s4.47-.5,5.62-1.49Z"/><path class="cls-1" d="M93.05,14.39c-1,1.4-2.7,2.42-5.11,3.05,.28,.37,.48,.67,.6,.88l5.69,7.9h-9.55c-1.03-1.92-2.66-4.63-4.88-8.15h-5.16v8.15h-8.29c.19-4.54,.28-8.79,.28-12.74s-.09-8.2-.28-12.74h8.29v.04h7.2c4.73,0,8.03,.76,9.9,2.28,1.87,1.52,2.81,3.58,2.81,6.18,0,2.04-.5,3.76-1.49,5.16Zm-18.41-6.88v4h4.74c1.99,0,3.49-.06,4.51-.19,1.02-.13,1.73-.33,2.12-.61s.6-.69,.6-1.23-.19-.91-.56-1.19c-.37-.28-1.08-.48-2.11-.6-1.03-.12-2.55-.18-4.56-.18h-4.74Z"/><path class="cls-1" d="M117.4,26.23c-.44-1.33-1.04-3.01-1.79-5.02h-11.2l-1.76,5.02h-8.81L103.67,.74h12.92l9.9,25.49h-9.09Zm-3.79-10.5c-.89-2.46-1.8-4.92-2.74-7.37l-.84-2.28c-.82,2.13-2.02,5.35-3.62,9.65h7.2Z"/></g></g></svg>